<svg width="134" height="121" viewBox="0 0 134 121" fill="none" xmlns="http://www.w3.org/2000/svg">
<path d="M120.394 17.5511C119.677 8.2994 111.926 0.989258 102.494 0.989258H18.4607C8.55715 0.989258 0.5 9.04641 0.5 18.95V102.05C0.5 111.954 8.55715 120.011 18.4607 120.011H115.54C125.443 120.011 133.5 111.954 133.5 102.05V34.8396C133.5 26.6185 127.946 19.675 120.394 17.5511ZM18.4607 9.37966H102.494C107.06 9.37966 110.886 12.5945 111.836 16.8791H18.4607C14.9443 16.8791 11.6634 17.8988 8.89041 19.6524V18.95C8.89041 13.6729 13.1837 9.37966 18.4607 9.37966ZM115.539 111.62H18.4607C13.1837 111.62 8.89041 107.327 8.89041 102.05V34.8396C8.89041 29.5625 13.1837 25.2693 18.4607 25.2693H115.54C120.817 25.2693 125.11 29.5625 125.11 34.8396V49.4803H98.3586C87.7579 49.4803 79.1336 58.1049 79.1336 68.7056C79.1336 79.3064 87.7581 87.9309 98.3586 87.9309H125.11V102.05C125.11 107.327 120.816 111.62 115.539 111.62ZM125.11 79.5405H98.3586C92.3844 79.5405 87.524 74.6801 87.524 68.7056C87.524 62.7311 92.3844 57.8707 98.3586 57.8707H125.11V79.5405Z" fill="#3C3B7A"/>
<path d="M58.2308 55.75L36.125 77.8558L26.0769 67.8077" stroke="#49D688" stroke-width="5" stroke-linecap="round" stroke-linejoin="round"/>
</svg>
