<svg width="158" height="54" viewBox="0 0 158 54" fill="none" xmlns="http://www.w3.org/2000/svg">
<path d="M41.104 11.448L52.432 35H48.304L46.288 30.392H35.504L33.488 35H29.488L40.752 11.448H41.104ZM39.504 21.464L36.944 27.16H44.88L42.352 21.496L40.976 18.264H40.912L39.504 21.464ZM54.4343 20.312H58.0183V35H54.4343V20.312ZM56.1943 17.56C55.5329 17.56 54.9783 17.336 54.5303 16.888C54.0823 16.44 53.8583 15.8853 53.8583 15.224C53.8583 14.6267 54.0823 14.1147 54.5303 13.688C54.9783 13.2613 55.5329 13.048 56.1943 13.048C56.8343 13.048 57.3783 13.2613 57.8263 13.688C58.2743 14.1147 58.4983 14.6267 58.4983 15.224C58.4983 15.8853 58.2743 16.44 57.8263 16.888C57.3996 17.336 56.8556 17.56 56.1943 17.56ZM68.0513 22.744L61.2673 11.48H65.5873L70.0353 19.704L74.6113 11.48H78.8353L72.0193 22.68L79.5073 35H75.2513L70.0673 25.688L64.9793 35H60.8513L68.0513 22.744ZM82.1485 20.312H85.4765V23.032C86.6498 20.9627 88.4845 19.928 90.9805 19.928C93.0498 19.928 94.7245 20.5893 96.0045 21.912C97.2845 23.2133 97.9245 25.1013 97.9245 27.576C97.9245 29.112 97.6045 30.4667 96.9645 31.64C96.3458 32.8133 95.4925 33.72 94.4045 34.36C93.3378 35 92.1432 35.32 90.8205 35.32C89.5832 35.32 88.5058 35.1067 87.5885 34.68C86.6925 34.232 85.9885 33.6027 85.4765 32.792L85.5085 42.776H82.1485V20.312ZM90.0205 32.408C91.4072 32.408 92.4738 31.9707 93.2205 31.096C93.9672 30.2 94.3405 29.0587 94.3405 27.672C94.3405 26.2213 93.9672 25.0693 93.2205 24.216C92.4952 23.3413 91.4285 22.904 90.0205 22.904C89.2525 22.904 88.5272 23.096 87.8445 23.48C87.1832 23.8427 86.6498 24.376 86.2445 25.08C85.8605 25.7627 85.6685 26.5627 85.6685 27.48V27.704C85.6685 28.6213 85.8605 29.4427 86.2445 30.168C86.6498 30.872 87.1832 31.4267 87.8445 31.832C88.5058 32.216 89.2312 32.408 90.0205 32.408ZM108.112 35.32C106.789 35.32 105.562 35.0107 104.432 34.392C103.322 33.752 102.426 32.856 101.744 31.704C101.082 30.5307 100.752 29.1653 100.752 27.608C100.752 26.072 101.04 24.728 101.616 23.576C102.213 22.424 103.056 21.528 104.144 20.888C105.232 20.248 106.512 19.928 107.984 19.928C108.837 19.928 109.637 20.0773 110.384 20.376C111.13 20.6747 111.76 21.048 112.272 21.496C112.784 21.9227 113.125 22.3493 113.296 22.776L113.36 20.312H116.656V35H113.392L113.328 32.408C112.965 33.176 112.304 33.8587 111.344 34.456C110.384 35.032 109.306 35.32 108.112 35.32ZM108.688 32.44C109.904 32.44 110.928 32.024 111.76 31.192C112.592 30.3387 113.008 29.2293 113.008 27.864V27.64C113.008 26.7227 112.816 25.9013 112.432 25.176C112.048 24.4507 111.525 23.8853 110.864 23.48C110.202 23.0747 109.477 22.872 108.688 22.872C107.322 22.872 106.266 23.32 105.52 24.216C104.773 25.0907 104.4 26.232 104.4 27.64C104.4 29.0693 104.762 30.232 105.488 31.128C106.234 32.0027 107.301 32.44 108.688 32.44ZM121.303 20.312H124.695L124.727 23C125.133 22.104 125.773 21.368 126.647 20.792C127.522 20.216 128.546 19.928 129.719 19.928C131.234 19.928 132.397 20.248 133.207 20.888C134.018 21.5067 134.562 22.3813 134.839 23.512C135.117 24.6427 135.255 26.1147 135.255 27.928V35H131.799V28.024C131.799 26.168 131.618 24.8347 131.255 24.024C130.893 23.192 130.146 22.776 129.015 22.776C128.375 22.776 127.725 22.9787 127.063 23.384C126.402 23.768 125.847 24.3333 125.399 25.08C124.973 25.8267 124.759 26.7013 124.759 27.704V35H121.303V20.312ZM146.206 35.32C144.883 35.32 143.656 35.0107 142.526 34.392C141.416 33.752 140.52 32.856 139.838 31.704C139.176 30.5307 138.846 29.1653 138.846 27.608C138.846 25.2827 139.496 23.4267 140.798 22.04C142.099 20.632 143.859 19.928 146.078 19.928C147.315 19.928 148.446 20.2373 149.47 20.856C150.494 21.4533 151.187 22.1787 151.55 23.032L151.39 20.536V11.48H154.782V35H151.486L151.422 32.408C151.059 33.176 150.398 33.8587 149.438 34.456C148.478 35.032 147.4 35.32 146.206 35.32ZM146.782 32.408C147.998 32.408 149.022 31.992 149.854 31.16C150.686 30.3067 151.102 29.1973 151.102 27.832V27.608C151.102 26.6907 150.91 25.8693 150.526 25.144C150.142 24.4187 149.619 23.8533 148.958 23.448C148.296 23.0427 147.571 22.84 146.782 22.84C145.416 22.84 144.36 23.288 143.614 24.184C142.867 25.0587 142.494 26.2 142.494 27.608C142.494 29.0373 142.856 30.2 143.582 31.096C144.328 31.9707 145.395 32.408 146.782 32.408Z" fill="white"/>
<path d="M101 38H105.867V39.6033H102.678V42.9243H105.247V44.5603H102.678V48.4049H106.365V50.0245H101V38Z" fill="white"/>
<path d="M109.657 46.1309L107.224 42.5153H109.158L110.579 44.8384L111.924 42.5153H113.904L111.456 46.0327L114.116 50.0245H112.242L110.594 47.3742L109.022 50.0245H107.058L109.657 46.1309Z" fill="white"/>
<path d="M115.404 42.5153H116.976V43.9059C117.53 42.848 118.396 42.319 119.575 42.319C120.553 42.319 121.344 42.6571 121.948 43.3333C122.553 43.9986 122.855 44.9639 122.855 46.229C122.855 47.0143 122.704 47.7069 122.402 48.3067C122.109 48.9066 121.706 49.3701 121.192 49.6973C120.689 50.0245 120.124 50.1881 119.5 50.1881C118.915 50.1881 118.407 50.0791 117.973 49.8609C117.55 49.6319 117.218 49.3102 116.976 48.8957L116.991 54H115.404V42.5153ZM119.122 48.6994C119.777 48.6994 120.281 48.4758 120.633 48.0286C120.986 47.5706 121.162 46.987 121.162 46.2781C121.162 45.5365 120.986 44.9475 120.633 44.5112C120.291 44.0641 119.787 43.8405 119.122 43.8405C118.759 43.8405 118.417 43.9386 118.094 44.135C117.782 44.3204 117.53 44.593 117.338 44.953C117.157 45.302 117.066 45.711 117.066 46.18V46.2945C117.066 46.7635 117.157 47.1834 117.338 47.5542C117.53 47.9141 117.782 48.1977 118.094 48.4049C118.407 48.6012 118.749 48.6994 119.122 48.6994Z" fill="white"/>
<path d="M124.734 38H126.352V50.0245H124.734V38Z" fill="white"/>
<path d="M131.877 50.1881C131.161 50.1881 130.527 50.0136 129.973 49.6646C129.418 49.3156 128.99 48.8412 128.688 48.2413C128.386 47.6414 128.234 46.9761 128.234 46.2454C128.234 45.5256 128.381 44.8657 128.673 44.2658C128.975 43.666 129.403 43.1915 129.957 42.8425C130.512 42.4935 131.151 42.319 131.877 42.319C132.602 42.319 133.237 42.4935 133.781 42.8425C134.335 43.1915 134.759 43.666 135.051 44.2658C135.353 44.8657 135.504 45.5256 135.504 46.2454C135.504 46.9761 135.353 47.6414 135.051 48.2413C134.748 48.8412 134.32 49.3156 133.766 49.6646C133.222 50.0136 132.592 50.1881 131.877 50.1881ZM131.922 48.7485C132.507 48.7485 132.965 48.514 133.298 48.045C133.64 47.576 133.811 46.987 133.811 46.2781C133.811 45.5692 133.63 44.9748 133.267 44.4949C132.905 44.0041 132.426 43.7587 131.832 43.7587C131.257 43.7587 130.794 43.9986 130.441 44.4785C130.098 44.9584 129.927 45.5583 129.927 46.2781C129.927 46.9761 130.114 47.5651 130.486 48.045C130.859 48.514 131.338 48.7485 131.922 48.7485Z" fill="white"/>
<path d="M137.202 42.5153H138.834V43.9877C138.995 43.486 139.257 43.0825 139.62 42.7771C139.983 42.4717 140.396 42.319 140.86 42.319C141.182 42.319 141.404 42.3517 141.525 42.4172L141.298 44.2004C141.207 44.135 141.011 44.1022 140.708 44.1022C140.235 44.1022 139.802 44.2658 139.409 44.593C139.026 44.9202 138.834 45.4438 138.834 46.1636V50.0245H137.202V42.5153Z" fill="white"/>
<path d="M145.959 50.1881C145.132 50.1881 144.442 50.0136 143.888 49.6646C143.334 49.3047 142.926 48.8303 142.664 48.2413C142.402 47.6414 142.271 46.987 142.271 46.2781C142.271 45.4819 142.422 44.7839 142.724 44.184C143.037 43.5842 143.465 43.1261 144.009 42.8098C144.553 42.4826 145.168 42.319 145.853 42.319C146.921 42.319 147.712 42.6408 148.226 43.2843C148.75 43.9168 149.012 44.8112 149.012 45.9673C149.012 46.2618 148.996 46.5671 148.966 46.8834H143.979C144.089 47.5487 144.306 48.0286 144.629 48.3231C144.961 48.6176 145.419 48.7648 146.004 48.7648C146.488 48.7648 146.886 48.7212 147.198 48.6339C147.51 48.5467 147.797 48.4267 148.059 48.274L148.558 49.5337C148.306 49.7082 147.964 49.8609 147.53 49.9918C147.097 50.1227 146.573 50.1881 145.959 50.1881ZM147.425 45.6564C147.435 44.9802 147.299 44.5058 147.016 44.2331C146.734 43.9496 146.331 43.8078 145.807 43.8078C144.749 43.8078 144.14 44.424 143.979 45.6564H147.425Z" fill="white"/>
<path d="M150.677 42.5153H152.31V43.9877C152.471 43.486 152.733 43.0825 153.096 42.7771C153.458 42.4717 153.872 42.319 154.335 42.319C154.657 42.319 154.879 42.3517 155 42.4172L154.773 44.2004C154.683 44.135 154.486 44.1022 154.184 44.1022C153.71 44.1022 153.277 44.2658 152.884 44.593C152.501 44.9202 152.31 45.4438 152.31 46.1636V50.0245H150.677V42.5153Z" fill="white"/>
<path fill-rule="evenodd" clip-rule="evenodd" d="M16.636 22.1188L11.616 11.0914H11.264L0 35H4L6.016 30.0354H13.4795L11.5 35H15.5L17.1139 30.9522L18.5 35H22.5L18.7684 26.8029L25.0122 11.1434H21.0122L16.636 22.1188ZM15.0625 26.0652L12.864 21.1394L11.488 17.9074H11.424L10.016 21.1074L7.456 26.8034H14.7682L15.0625 26.0652Z" fill="url(#paint0_linear_82_382)"/>
<defs>
<linearGradient id="paint0_linear_82_382" x1="7.69082e-08" y1="26.4357" x2="20.645" y2="26.4357" gradientUnits="userSpaceOnUse">
<stop stop-color="#E81066"/>
<stop offset="0.545" stop-color="#A63CC8"/>
<stop offset="1" stop-color="#4E4AFF"/>
</linearGradient>
</defs>
</svg>
