<svg width="249" height="268" viewBox="0 0 249 268" fill="none" xmlns="http://www.w3.org/2000/svg">
<path fill-rule="evenodd" clip-rule="evenodd" d="M115.279 1.34105C107.781 14.6396 98.722 32.4922 97.8444 50.0369C97.5569 55.7848 98.1472 61.5025 99.9584 67.0164C99.9045 71.1111 100.318 75.18 101.324 79.16C101.319 79.2609 101.313 79.3618 101.308 79.4627C101.137 82.8787 101.277 86.2841 101.798 89.6424C101.661 90.8617 101.561 92.0812 101.5 93.2992C101.461 94.0749 101.438 94.8502 101.432 95.6244C94.9522 107.885 88.4947 122.774 87.7607 137.448C87.3213 146.231 88.9316 154.944 93.8155 162.966C98.6979 170.986 106.837 178.293 119.419 184.294C148.726 198.273 172.837 192.463 191.363 187.999C193.084 187.584 194.756 187.181 196.38 186.807C205.958 184.598 213.775 183.404 219.887 186.544C225.972 189.671 230.451 197.152 233.196 212.58L233.733 212.464C230.98 196.985 226.452 189.258 220.123 186.006C213.821 182.768 205.818 184.024 196.27 186.225C194.644 186.6 192.972 187.003 191.252 187.417C172.729 191.879 148.78 197.648 119.642 183.749C107.129 177.781 99.0832 170.538 94.2726 162.636C89.4635 154.736 87.873 146.154 88.3071 137.476C89.0166 123.292 95.1334 108.869 101.437 96.8121C101.44 97.0344 101.445 97.2567 101.451 97.4788C101.343 98.0442 101.242 98.6101 101.149 99.1763C97.1511 108.456 94.0077 118.53 93.5087 128.505C93.0694 137.288 94.6797 146 99.5636 154.023C104.446 162.043 112.585 169.349 125.167 175.351C154.474 189.33 178.585 183.52 197.111 179.056C198.832 178.641 200.504 178.238 202.128 177.864C211.706 175.655 219.524 174.461 225.635 177.601C231.72 180.728 236.199 188.209 238.944 203.637L239.481 203.521C236.728 188.042 232.2 180.315 225.871 177.063C219.569 173.825 211.566 175.081 202.018 177.282C200.393 177.657 198.72 178.06 197 178.474C178.477 182.936 154.528 188.705 125.39 174.806C112.877 168.837 104.831 161.595 100.021 153.693C95.2116 145.793 93.621 137.211 94.0551 128.533C94.5042 119.555 97.1196 110.481 100.577 101.973C99.0484 107.275 98.0084 112.688 97.7391 118.073C97.2997 126.856 98.91 135.568 103.794 143.591C108.676 151.611 116.816 158.917 129.398 164.919C158.704 178.898 182.815 173.088 201.342 168.623C203.062 168.209 204.735 167.806 206.359 167.431C215.936 165.223 223.754 164.028 229.865 167.169C235.951 170.296 240.43 177.777 243.174 193.205L243.712 193.088C240.958 177.609 236.43 169.882 230.102 166.631C223.799 163.392 215.796 164.648 206.249 166.85C204.623 167.225 202.95 167.628 201.231 168.042C182.707 172.504 158.758 178.273 129.62 164.374C117.107 158.405 109.062 151.162 104.251 143.26C99.4419 135.361 97.8514 126.779 98.2855 118.101C98.5157 113.499 99.3149 108.873 100.505 104.31C100.451 104.96 100.407 105.609 100.374 106.259C99.9351 115.041 101.545 123.754 106.429 131.777C111.312 139.797 119.451 147.103 132.033 153.105C161.339 167.084 185.451 161.274 203.977 156.809C205.698 156.395 207.37 155.992 208.994 155.617C218.571 153.409 226.389 152.214 232.5 155.354C238.586 158.481 243.065 165.963 245.81 181.391L246.347 181.274C243.593 165.795 239.065 158.068 232.737 154.817C226.434 151.578 218.432 152.834 208.884 155.036C207.258 155.411 205.586 155.814 203.866 156.228C185.342 160.69 161.393 166.458 132.256 152.56C119.742 146.591 111.697 139.348 106.886 131.446C102.077 123.547 100.487 114.965 100.921 106.287C101.008 104.553 101.175 102.816 101.414 101.08C101.481 100.857 101.549 100.633 101.619 100.41C102.173 106.752 103.994 112.968 107.555 118.817C112.437 126.837 120.577 134.144 133.158 140.145C162.465 154.124 186.576 148.314 205.103 143.85C206.823 143.435 208.496 143.032 210.12 142.658C219.697 140.449 227.515 139.255 233.626 142.395C239.712 145.522 244.191 153.003 246.935 168.432L247.473 168.315C244.719 152.836 240.191 145.109 233.863 141.857C227.56 138.619 219.557 139.875 210.01 142.076C208.384 142.451 206.711 142.854 204.992 143.268C186.468 147.73 162.519 153.499 133.381 139.601C120.868 133.632 112.822 126.389 108.012 118.487C104.256 112.317 102.463 105.73 102.065 99.0062C102.312 98.2481 102.569 97.4929 102.833 96.7408C102.967 96.447 103.101 96.154 103.236 95.862C104.208 98.9746 105.563 102.025 107.363 104.981C112.245 113.001 120.385 120.307 132.967 126.309C162.273 140.288 186.384 134.478 204.911 130.013C206.632 129.599 208.304 129.196 209.928 128.821C219.505 126.613 227.323 125.418 233.434 128.559C239.52 131.686 243.999 139.167 246.744 154.595L247.281 154.479C244.527 138.999 239.999 131.273 233.671 128.021C227.368 124.782 219.366 126.038 209.818 128.24C208.192 128.615 206.519 129.018 204.8 129.432C186.276 133.894 162.327 139.663 133.19 125.764C120.676 119.795 112.631 112.553 107.82 104.65C105.941 101.564 104.553 98.3724 103.586 95.1121C104.356 93.469 105.146 91.8563 105.944 90.2792C105.988 90.353 106.033 90.4267 106.078 90.5004C110.96 98.5204 119.1 105.827 131.681 111.828C160.988 125.807 185.099 119.997 203.626 115.533C205.346 115.119 207.019 114.716 208.643 114.341C218.22 112.133 226.038 110.938 232.149 114.078C238.235 117.205 242.714 124.687 245.458 140.115L245.996 139.998C243.242 124.519 238.714 116.792 232.386 113.541C226.083 110.302 218.08 111.558 208.533 113.76C206.907 114.135 205.234 114.537 203.515 114.952C184.991 119.414 161.042 125.182 131.904 111.284C119.391 105.315 111.345 98.0722 106.535 90.1702C106.437 90.0094 106.34 89.8483 106.245 89.687C107.403 87.4187 108.576 85.2267 109.732 83.1273C114.541 88.1859 121.01 92.8317 129.503 96.8829C158.809 110.862 182.921 105.052 201.447 100.588C203.168 100.173 204.84 99.7701 206.464 99.3957C216.041 97.1873 223.859 95.9926 229.97 99.1328C236.056 102.26 240.535 109.741 243.28 125.169L243.817 125.053C241.063 109.574 236.535 101.847 230.207 98.5951C223.904 95.3566 215.902 96.6127 206.354 98.8142C204.728 99.1891 203.056 99.592 201.336 100.006C182.812 104.468 158.863 110.237 129.726 96.3383C121.224 92.2832 114.785 87.6401 110.022 82.6018C110.488 81.7577 110.952 80.929 111.41 80.1169L110.944 79.809C110.508 80.5822 110.066 81.3708 109.622 82.1738C109.489 82.0301 109.358 81.8862 109.228 81.7419C111.342 77.4475 113.549 73.3939 115.64 69.6847L115.174 69.3768C113.11 73.0378 110.927 77.0439 108.83 81.2937C108.358 80.7553 107.904 80.2128 107.468 79.6663C110.698 71.7288 114.659 64.2847 118.275 57.8706L117.809 57.5627C114.234 63.9042 110.304 71.2811 107.074 79.1665C106.38 78.271 105.734 77.3651 105.132 76.4497C108.594 64.8993 114.336 53.8949 119.401 44.9112L118.935 44.6033C113.935 53.472 108.24 64.3661 104.741 75.8435C104.61 75.6377 104.482 75.4314 104.356 75.2247C103.744 74.2183 103.183 73.2008 102.672 72.1734C105.214 57.2273 112.76 42.5131 119.209 31.0747L118.743 30.7668C112.403 42.0112 104.947 56.5114 102.265 71.3284C101.584 69.8746 101 68.4018 100.507 66.9136C100.517 66.2799 100.538 65.6455 100.569 65.0105C101.439 47.6332 110.423 29.8982 117.924 16.5944L117.458 16.2865C109.96 29.585 100.901 47.4376 100.023 64.9823C100.018 65.087 100.013 65.1917 100.008 65.2963C98.5889 60.3349 98.1331 55.217 98.3908 50.0651C99.2601 32.6878 108.245 14.9527 115.745 1.64895L115.279 1.34105ZM102.63 94.5595C102.439 95.3786 102.261 96.1992 102.098 97.021C102.176 96.8475 102.255 96.6743 102.333 96.5014C102.529 95.9467 102.728 95.3937 102.932 94.8428C102.88 94.657 102.828 94.4711 102.778 94.2849L102.63 94.5595ZM103.162 93.5748C103.195 93.7041 103.228 93.8332 103.262 93.9622C103.515 93.2955 103.774 92.6318 104.038 91.9716C103.747 92.5002 103.455 93.0347 103.162 93.5748ZM105.132 88.8647C104.924 88.4852 104.723 88.1044 104.529 87.7222C104.032 89.2741 103.575 90.8372 103.163 92.408C103.827 91.1952 104.485 90.0131 105.132 88.8647ZM102.12 94.3339C102.225 93.8827 102.335 93.4321 102.449 92.9821C102.344 92.5373 102.246 92.0913 102.156 91.6444C102.111 92.2057 102.074 92.7667 102.046 93.3273C102.026 93.7385 102.01 94.1494 101.998 94.5601L102.12 94.3339ZM105.609 89.711C105.526 89.874 105.443 90.0374 105.361 90.2011C105.435 90.0237 105.51 89.8465 105.585 89.6696L105.609 89.711ZM109.331 82.7007C108.2 84.7523 107.051 86.8955 105.914 89.1145L105.862 89.0228C106.849 86.7282 107.891 84.4807 108.958 82.2939C109.081 82.4298 109.205 82.5654 109.331 82.7007ZM108.558 81.8475C108.096 81.3257 107.652 80.7998 107.224 80.27C106.342 82.4687 105.518 84.704 104.775 86.9646C105.013 87.449 105.262 87.9313 105.523 88.4113C106.494 86.1721 107.514 83.98 108.558 81.8475ZM104.179 87.0159C103.661 88.604 103.183 90.2049 102.752 91.8146C102.599 91.0872 102.466 90.357 102.351 89.6243C102.54 87.9562 102.797 86.2879 103.114 84.6237C103.441 85.4263 103.795 86.2239 104.179 87.0159ZM106.828 79.773C105.97 81.8995 105.164 84.0618 104.432 86.2496C104.025 85.3786 103.652 84.5009 103.313 83.6171C103.758 81.4516 104.301 79.2945 104.923 77.155C105.516 78.0373 106.151 78.9102 106.828 79.773ZM104.527 76.5541C104.312 76.2224 104.103 75.8893 103.899 75.555C103.407 74.7459 102.947 73.9298 102.52 73.1074C102.209 75.1021 101.99 77.0998 101.876 79.0933C102.181 80.2882 102.54 81.4747 102.957 82.6509C103.401 80.6068 103.929 78.572 104.527 76.5541ZM102.742 83.6757C102.394 82.7547 102.081 81.8274 101.802 80.8946C101.748 83.1158 101.831 85.3287 102.071 87.5232C102.258 86.2389 102.483 84.9557 102.742 83.6757ZM102.1 72.2751C101.821 73.9452 101.604 75.6185 101.458 77.2909C100.859 74.4239 100.557 71.5136 100.508 68.583C100.973 69.8257 101.502 71.0571 102.1 72.2751ZM80.7313 144.984C81.6089 127.439 90.6683 109.586 98.1661 96.2877L98.6323 96.5956C91.1315 109.899 82.1469 127.634 81.2777 145.012C80.8436 153.69 82.4341 162.272 87.2432 170.171C92.0537 178.073 100.099 185.316 112.613 191.285C141.75 205.183 165.699 199.415 184.223 194.953L184.224 194.953C185.943 194.538 187.615 194.136 189.241 193.761C198.789 191.559 206.791 190.303 213.094 193.542C219.422 196.793 223.95 204.52 226.704 219.999L226.167 220.116C223.422 204.688 218.943 197.206 212.857 194.079C206.746 190.939 198.928 192.134 189.351 194.342C187.727 194.717 186.055 195.12 184.334 195.534C165.807 199.999 141.696 205.809 112.39 191.83C99.808 185.828 91.6685 178.522 86.7861 170.502C81.9022 162.479 80.2919 153.766 80.7313 144.984ZM90.1727 102.657C82.6749 115.956 73.6154 133.808 72.7378 151.353C72.2984 160.136 73.9087 168.849 78.7926 176.871C83.675 184.891 91.8145 192.198 104.396 198.199C133.703 212.178 157.814 206.368 176.34 201.904C178.061 201.489 179.733 201.086 181.357 200.712C190.935 198.504 198.753 197.309 204.864 200.449C210.949 203.576 215.429 211.057 218.173 226.486L218.71 226.369C215.957 210.89 211.429 203.163 205.101 199.911C198.798 196.673 190.795 197.929 181.247 200.131C179.622 200.505 177.95 200.908 176.231 201.322L176.23 201.322C157.706 205.784 133.757 211.553 104.619 197.655C92.1059 191.686 84.0603 184.443 79.2497 176.541C74.4406 168.641 72.8501 160.059 73.2842 151.381C74.1535 134.004 83.138 116.269 90.6388 102.965L90.1727 102.657ZM64.089 156.875C64.9666 139.33 74.0261 121.478 81.5239 108.179L81.99 108.487C74.4892 121.791 65.5047 139.526 64.6354 156.903C64.2013 165.581 65.7918 174.163 70.6009 182.063C75.4115 189.965 83.4571 197.208 95.9704 203.176C125.108 217.075 149.057 211.306 167.581 206.844C169.3 206.43 170.973 206.027 172.599 205.652C182.146 203.451 190.149 202.195 196.452 205.433C202.78 208.685 207.308 216.412 210.062 231.891L209.524 232.007C206.78 216.579 202.301 209.098 196.215 205.971C190.104 202.831 182.286 204.025 172.709 206.234C171.085 206.608 169.412 207.011 167.692 207.426C149.165 211.89 125.054 217.7 95.7475 203.721C83.1657 197.719 75.0262 190.413 70.1438 182.393C65.2599 174.371 63.6496 165.658 64.089 156.875ZM72.486 113.169C64.9882 126.468 55.9288 144.32 55.0511 161.865C54.6118 170.648 56.2221 179.36 61.106 187.383C65.9884 195.403 74.1279 202.709 86.7096 208.711C116.016 222.69 140.127 216.88 158.654 212.416L158.654 212.416L158.658 212.415L158.661 212.414C160.379 212 162.049 211.598 163.671 211.224C173.248 209.015 181.066 207.821 187.177 210.961C193.263 214.088 197.742 221.569 200.487 236.997L201.024 236.881C198.27 221.402 193.742 213.675 187.414 210.423C181.111 207.185 173.108 208.441 163.561 210.642C161.935 211.017 160.262 211.42 158.543 211.834L158.543 211.834C140.019 216.296 116.07 222.065 86.9325 208.166C74.4192 202.197 66.3736 194.955 61.5631 187.053C56.754 179.153 55.1634 170.571 55.5975 161.893C56.4668 144.516 65.4514 126.781 72.9521 113.477L72.486 113.169ZM45.8245 166.594C46.7021 149.049 55.7616 131.197 63.2594 117.898L63.7255 118.206C56.2248 131.51 47.2402 149.245 46.3709 166.622C45.9368 175.3 47.5274 183.882 52.3364 191.782C57.147 199.684 65.1926 206.927 77.7059 212.896C106.843 226.794 130.792 221.025 149.316 216.563L149.316 216.563C151.036 216.149 152.708 215.746 154.334 215.371C163.882 213.17 171.885 211.914 178.187 215.152C184.515 218.404 189.044 226.131 191.797 241.61L191.26 241.727C188.515 226.298 184.036 218.817 177.951 215.69C171.839 212.55 164.022 213.744 154.444 215.953C152.82 216.327 151.148 216.73 149.427 217.145C130.901 221.609 106.789 227.419 77.483 213.44C64.9012 207.439 56.7617 200.132 51.8794 192.112C46.9955 184.09 45.3852 175.377 45.8245 166.594ZM54.0051 122.583C46.5073 135.882 37.4479 153.734 36.5702 171.279C36.1309 180.062 37.7412 188.775 42.6251 196.797C47.5075 204.817 55.647 212.124 68.2287 218.125C97.5352 232.104 121.646 226.294 140.173 221.83L140.173 221.83L140.177 221.829L140.18 221.828C141.898 221.414 143.568 221.012 145.19 220.638C154.767 218.429 162.585 217.235 168.696 220.375C174.782 223.502 179.261 230.983 182.006 246.412L182.543 246.295C179.789 230.816 175.261 223.089 168.933 219.837C162.63 216.599 154.628 217.855 145.08 220.056C143.454 220.431 141.781 220.834 140.062 221.248L140.062 221.248C121.538 225.71 97.5892 231.479 68.4516 217.581C55.9383 211.612 47.8927 204.369 43.0821 196.467C38.2731 188.567 36.6825 179.985 37.1166 171.307C37.9859 153.93 46.9705 136.195 54.4712 122.891L54.0051 122.583ZM27.397 176.083C28.2746 158.539 37.3341 140.686 44.8319 127.388L45.298 127.695C37.7972 140.999 28.8126 158.734 27.9434 176.112C27.5093 184.79 29.0998 193.372 33.9089 201.271C38.7195 209.173 46.765 216.416 59.2783 222.385C88.4159 236.283 112.365 230.515 130.889 226.053L130.889 226.053C132.608 225.639 134.281 225.236 135.907 224.861C145.454 222.659 153.457 221.403 159.76 224.642C166.088 227.893 170.616 235.62 173.37 251.099L172.832 251.216C170.088 235.788 165.609 228.306 159.523 225.179C153.412 222.039 145.594 223.234 136.017 225.442C134.393 225.817 132.72 226.22 131 226.634C112.473 231.099 88.3619 236.908 59.0554 222.929C46.4737 216.928 38.3342 209.621 33.4518 201.602C28.5679 193.579 26.9576 184.866 27.397 176.083ZM35.832 132.431C28.3342 145.73 19.2747 163.582 18.3971 181.127C17.9577 189.91 19.568 198.623 24.4519 206.645C29.3343 214.665 37.4738 221.972 50.0556 227.973C79.362 241.952 103.473 236.142 122 231.678L122 231.678L122.004 231.677L122.007 231.676C123.725 231.262 125.395 230.86 127.017 230.486C136.594 228.277 144.412 227.083 150.523 230.223C156.609 233.35 161.088 240.831 163.832 256.26L164.37 256.143C161.616 240.664 157.088 232.937 150.76 229.685C144.457 226.447 136.454 227.703 126.907 229.904C125.281 230.279 123.608 230.682 121.889 231.096L121.889 231.096C103.365 235.558 79.416 241.327 50.2785 227.428C37.7652 221.46 29.7196 214.217 24.909 206.315C20.0999 198.415 18.5094 189.833 18.9435 181.155C19.8128 163.778 28.7974 146.043 36.2981 132.739L35.832 132.431ZM9.63246 186.49C10.5101 168.945 19.5695 151.093 27.0673 137.794L27.5335 138.102C20.0327 151.406 11.0481 169.141 10.1789 186.518C9.74476 195.197 11.3353 203.778 16.1444 211.678C20.9549 219.58 29.0005 226.823 41.5138 232.792C70.6514 246.69 94.6003 240.921 113.124 236.459L113.124 236.459C114.844 236.045 116.516 235.642 118.142 235.268C127.69 233.066 135.693 231.81 141.995 235.048C148.323 238.3 152.851 246.027 155.605 261.506L155.068 261.623C152.323 246.194 147.844 238.713 141.758 235.586C135.647 232.446 127.83 233.641 118.252 235.849C116.63 236.223 114.959 236.626 113.239 237.04L113.235 237.041L113.235 237.041C94.7086 241.505 70.5974 247.315 41.2909 233.336C28.7092 227.335 20.5697 220.028 15.6873 212.008C10.8034 203.986 9.19311 195.273 9.63246 186.49ZM18.5814 143.532C11.0836 156.83 2.02415 174.683 1.14651 192.227C0.70717 201.01 2.31747 209.723 7.20136 217.745C12.0837 225.765 20.2233 233.072 32.805 239.073C62.1114 253.052 86.2226 247.242 104.749 242.778C106.47 242.364 108.142 241.961 109.766 241.586C119.344 239.378 127.161 238.183 133.273 241.323C139.358 244.45 143.837 251.932 146.582 267.36L147.119 267.243C144.366 251.764 139.837 244.037 133.509 240.786C127.207 237.547 119.204 238.803 109.656 241.005C108.03 241.38 106.358 241.782 104.638 242.197C86.1143 246.659 62.1655 252.427 33.0279 238.529C20.5146 232.56 12.469 225.317 7.65843 217.415C2.84935 209.516 1.25882 200.934 1.69292 192.256C2.56218 174.878 11.5468 157.143 19.0475 143.839L18.5814 143.532Z" fill="url(#paint0_radial_311_78)" fill-opacity="0.2"/>
<path d="M97.8444 50.0369L98.3226 50.0616L98.3226 50.0616L97.8444 50.0369ZM115.279 1.34105L115.53 0.896052L115.122 0.626591L114.871 1.07158L115.279 1.34105ZM99.9584 67.0164L100.437 67.0203L100.438 66.9266L100.41 66.8386L99.9584 67.0164ZM101.324 79.16L101.802 79.1876L101.807 79.1018L101.786 79.0191L101.324 79.16ZM101.308 79.4627L100.83 79.438L100.83 79.438L101.308 79.4627ZM101.798 89.6424L102.273 89.7018L102.282 89.6268L102.27 89.5525L101.798 89.6424ZM101.5 93.2992L101.022 93.2745L101.022 93.2745L101.5 93.2992ZM101.432 95.6244L101.847 95.8811L101.91 95.7621L101.911 95.6252L101.432 95.6244ZM87.7607 137.448L88.2389 137.473L88.2389 137.473L87.7607 137.448ZM93.8155 162.966L93.4155 163.255L93.4155 163.255L93.8155 162.966ZM119.419 184.294L119.614 183.817L119.614 183.817L119.419 184.294ZM191.363 187.999L191.464 188.507L191.464 188.507L191.363 187.999ZM196.38 186.807L196.284 186.298L196.284 186.298L196.38 186.807ZM219.887 186.544L219.679 187.014L219.679 187.014L219.887 186.544ZM233.196 212.58L232.726 212.683L232.817 213.193L233.287 213.091L233.196 212.58ZM233.733 212.464L233.824 212.974L234.294 212.872L234.204 212.362L233.733 212.464ZM220.123 186.006L219.916 186.477L219.916 186.477L220.123 186.006ZM196.27 186.225L196.174 185.716L196.174 185.716L196.27 186.225ZM191.252 187.417L191.152 186.909L191.152 186.909L191.252 187.417ZM119.642 183.749L119.837 183.273L119.837 183.273L119.642 183.749ZM94.2726 162.636L93.8726 162.925L94.2726 162.636ZM88.3071 137.476L88.7853 137.501L88.7853 137.501L88.3071 137.476ZM101.437 96.8121L101.915 96.8001L101.887 94.8998L101.021 96.5576L101.437 96.8121ZM101.451 97.4788L101.92 97.5808L101.931 97.5207L101.929 97.4595L101.451 97.4788ZM101.149 99.1763L101.582 99.3941L101.609 99.3322L101.62 99.2649L101.149 99.1763ZM93.5087 128.505L93.9869 128.53L93.9869 128.53L93.5087 128.505ZM99.5636 154.023L99.9636 153.734L99.5636 154.023ZM125.167 175.351L125.362 174.874L125.362 174.874L125.167 175.351ZM197.111 179.056L197.212 179.564L197.212 179.564L197.111 179.056ZM202.128 177.864L202.032 177.355L202.032 177.355L202.128 177.864ZM225.635 177.601L225.842 177.13L225.842 177.13L225.635 177.601ZM238.944 203.637L238.474 203.739L238.565 204.25L239.035 204.147L238.944 203.637ZM239.481 203.521L239.572 204.031L240.042 203.929L239.952 203.419L239.481 203.521ZM225.871 177.063L226.079 176.593L226.079 176.593L225.871 177.063ZM202.018 177.282L202.115 177.791L202.115 177.791L202.018 177.282ZM197 178.474L197.101 178.982L197.101 178.982L197 178.474ZM125.39 174.806L125.585 174.33L125.585 174.33L125.39 174.806ZM100.021 153.693L99.6206 153.982L100.021 153.693ZM94.0551 128.533L93.5769 128.508L93.5769 128.508L94.0551 128.533ZM100.577 101.973L101.034 102.125L100.139 101.765L100.577 101.973ZM97.7391 118.073L97.2609 118.048L97.2609 118.048L97.7391 118.073ZM103.794 143.591L103.394 143.88L103.394 143.88L103.794 143.591ZM129.398 164.919L129.593 164.442L129.593 164.442L129.398 164.919ZM201.342 168.623L201.442 169.131L201.442 169.131L201.342 168.623ZM206.359 167.431L206.262 166.923L206.262 166.923L206.359 167.431ZM229.865 167.169L230.072 166.698L230.072 166.698L229.865 167.169ZM243.174 193.205L242.704 193.307L242.795 193.817L243.265 193.715L243.174 193.205ZM243.712 193.088L243.803 193.599L244.273 193.497L244.182 192.986L243.712 193.088ZM230.102 166.631L230.309 166.16L230.309 166.16L230.102 166.631ZM206.249 166.85L206.345 167.359L206.345 167.359L206.249 166.85ZM201.231 168.042L201.331 168.55L201.331 168.55L201.231 168.042ZM129.62 164.374L129.816 163.898L129.816 163.898L129.62 164.374ZM104.251 143.26L104.651 142.971L104.651 142.971L104.251 143.26ZM98.2855 118.101L97.8073 118.076L97.8073 118.076L98.2855 118.101ZM100.505 104.31L100.982 104.353L100.044 104.171L100.505 104.31ZM100.374 106.259L100.853 106.283L100.853 106.283L100.374 106.259ZM106.429 131.777L106.829 131.488L106.829 131.488L106.429 131.777ZM132.033 153.105L132.228 152.628L132.228 152.628L132.033 153.105ZM203.977 156.809L204.078 157.317L204.078 157.317L203.977 156.809ZM208.994 155.617L208.898 155.108L208.898 155.108L208.994 155.617ZM232.5 155.354L232.708 154.884L232.708 154.884L232.5 155.354ZM245.81 181.391L245.34 181.493L245.43 182.003L245.901 181.901L245.81 181.391ZM246.347 181.274L246.438 181.785L246.908 181.682L246.817 181.172L246.347 181.274ZM232.737 154.817L232.944 154.346L232.944 154.346L232.737 154.817ZM208.884 155.036L208.98 155.545L208.98 155.545L208.884 155.036ZM203.866 156.228L203.967 156.736L203.967 156.736L203.866 156.228ZM132.256 152.56L132.451 152.083L132.451 152.083L132.256 152.56ZM106.886 131.446L106.486 131.735L106.486 131.735L106.886 131.446ZM100.921 106.287L101.399 106.311L101.399 106.311L100.921 106.287ZM101.414 101.08L100.959 100.922L100.946 100.963L100.94 101.007L101.414 101.08ZM101.619 100.41L102.095 100.357L101.165 100.247L101.619 100.41ZM107.555 118.817L107.955 118.528L107.955 118.528L107.555 118.817ZM133.158 140.145L133.354 139.669L133.354 139.669L133.158 140.145ZM205.103 143.85L205.203 144.358L205.203 144.358L205.103 143.85ZM210.12 142.658L210.023 142.149L210.023 142.149L210.12 142.658ZM233.626 142.395L233.833 141.924L233.833 141.924L233.626 142.395ZM246.935 168.432L246.465 168.534L246.556 169.044L247.026 168.942L246.935 168.432ZM247.473 168.315L247.563 168.825L248.034 168.723L247.943 168.213L247.473 168.315ZM233.863 141.857L234.07 141.387L234.07 141.387L233.863 141.857ZM210.01 142.076L210.106 142.585L210.106 142.585L210.01 142.076ZM204.992 143.268L205.092 143.776L205.092 143.776L204.992 143.268ZM133.381 139.601L133.576 139.124L133.576 139.124L133.381 139.601ZM108.012 118.487L107.612 118.776L107.612 118.776L108.012 118.487ZM102.065 99.0062L101.614 98.8355L101.581 98.9365L101.587 99.0431L102.065 99.0062ZM102.833 96.7408L102.404 96.5129L102.394 96.535L102.386 96.558L102.833 96.7408ZM103.236 95.862L103.69 95.6919L103.324 94.518L102.809 95.631L103.236 95.862ZM107.363 104.981L107.763 104.692L107.763 104.692L107.363 104.981ZM132.967 126.309L133.162 125.832L133.162 125.832L132.967 126.309ZM204.911 130.013L205.012 130.521L205.012 130.521L204.911 130.013ZM209.928 128.821L209.832 128.313L209.832 128.313L209.928 128.821ZM233.434 128.559L233.641 128.088L233.641 128.088L233.434 128.559ZM246.744 154.595L246.273 154.697L246.364 155.207L246.834 155.105L246.744 154.595ZM247.281 154.479L247.372 154.989L247.842 154.887L247.751 154.376L247.281 154.479ZM233.671 128.021L233.878 127.55L233.878 127.55L233.671 128.021ZM209.818 128.24L209.914 128.749L209.914 128.749L209.818 128.24ZM204.8 129.432L204.901 129.94L204.901 129.94L204.8 129.432ZM133.19 125.764L133.385 125.288L133.385 125.288L133.19 125.764ZM107.82 104.65L108.22 104.361L108.22 104.361L107.82 104.65ZM103.586 95.1121L103.159 94.8786L103.069 95.0706L103.13 95.2748L103.586 95.1121ZM105.944 90.2792L106.346 89.993L105.911 89.2684L105.525 90.031L105.944 90.2792ZM106.078 90.5004L105.678 90.7894L105.678 90.7894L106.078 90.5004ZM131.681 111.828L131.876 111.352L131.876 111.352L131.681 111.828ZM203.626 115.533L203.726 116.041L203.726 116.041L203.626 115.533ZM208.643 114.341L208.546 113.832L208.546 113.832L208.643 114.341ZM232.149 114.078L232.356 113.608L232.356 113.608L232.149 114.078ZM245.458 140.115L244.988 140.217L245.079 140.727L245.549 140.625L245.458 140.115ZM245.996 139.998L246.086 140.508L246.557 140.406L246.466 139.896L245.996 139.998ZM232.386 113.541L232.593 113.07L232.593 113.07L232.386 113.541ZM208.533 113.76L208.629 114.269L208.629 114.269L208.533 113.76ZM203.515 114.952L203.615 115.459L203.615 115.459L203.515 114.952ZM131.904 111.284L132.099 110.807L132.099 110.807L131.904 111.284ZM106.535 90.1702L106.135 90.4592L106.135 90.4592L106.535 90.1702ZM106.245 89.687L105.827 89.4371L105.688 89.7093L105.842 89.9699L106.245 89.687ZM109.732 83.1273L110.066 82.7524L109.633 82.2965L109.321 82.8626L109.732 83.1273ZM129.503 96.8829L129.698 96.4063L129.698 96.4063L129.503 96.8829ZM201.447 100.588L201.548 101.096L201.548 101.096L201.447 100.588ZM206.464 99.3957L206.368 98.8868L206.368 98.8868L206.464 99.3957ZM229.97 99.1328L230.178 98.6622L230.178 98.6622L229.97 99.1328ZM243.28 125.169L242.81 125.271L242.9 125.782L243.371 125.68L243.28 125.169ZM243.817 125.053L243.908 125.563L244.378 125.461L244.287 124.951L243.817 125.053ZM230.207 98.5951L230.414 98.1246L230.414 98.1246L230.207 98.5951ZM206.354 98.8142L206.45 99.3231L206.45 99.3231L206.354 98.8142ZM201.336 100.006L201.437 100.514L201.437 100.514L201.336 100.006ZM129.726 96.3383L129.531 96.8149L129.531 96.8149L129.726 96.3383ZM110.022 82.6018L109.612 82.3361L109.416 82.6898L109.686 82.9757L110.022 82.6018ZM111.41 80.1169L111.818 80.3864L112.069 79.9414L111.661 79.6719L111.41 80.1169ZM110.944 79.809L111.194 79.364L110.787 79.0945L110.536 79.5395L110.944 79.809ZM109.622 82.1738L109.282 82.5433L109.715 83.0121L110.032 82.4396L109.622 82.1738ZM109.228 81.7419L108.806 81.499L108.641 81.8357L108.885 82.1069L109.228 81.7419ZM115.64 69.6847L116.048 69.9541L116.299 69.5091L115.891 69.2397L115.64 69.6847ZM115.174 69.3768L115.425 68.9318L115.017 68.6623L114.766 69.1073L115.174 69.3768ZM108.83 81.2937L108.482 81.6539L108.938 82.1732L109.252 81.537L108.83 81.2937ZM107.468 79.6663L107.03 79.4587L106.907 79.7606L107.105 80.0086L107.468 79.6663ZM118.275 57.8706L118.683 58.1401L118.934 57.6951L118.526 57.4256L118.275 57.8706ZM117.809 57.5627L118.06 57.1177L117.652 56.8482L117.401 57.2932L117.809 57.5627ZM107.074 79.1665L106.707 79.5031L107.199 80.1382L107.512 79.3752L107.074 79.1665ZM105.132 76.4497L104.676 76.2918L104.602 76.5415L104.741 76.754L105.132 76.4497ZM119.401 44.9112L119.809 45.1807L120.06 44.7357L119.652 44.4662L119.401 44.9112ZM118.935 44.6033L119.186 44.1583L118.778 43.8888L118.527 44.3338L118.935 44.6033ZM104.741 75.8435L104.345 76.1403L104.891 77.0019L105.195 76.004L104.741 75.8435ZM104.356 75.2247L103.956 75.5138L103.956 75.5138L104.356 75.2247ZM102.672 72.1734L102.202 72.0823L102.171 72.2624L102.251 72.423L102.672 72.1734ZM119.209 31.0747L119.617 31.3442L119.868 30.8992L119.46 30.6297L119.209 31.0747ZM118.743 30.7668L118.994 30.3218L118.586 30.0523L118.335 30.4973L118.743 30.7668ZM102.265 71.3284L101.838 71.5668L102.466 72.9088L102.735 71.4254L102.265 71.3284ZM100.507 66.9136L100.028 66.9086L100.027 67.0036L100.056 67.0927L100.507 66.9136ZM100.569 65.0105L101.048 65.0352L101.048 65.0352L100.569 65.0105ZM117.924 16.5944L118.332 16.8638L118.583 16.4188L118.175 16.1494L117.924 16.5944ZM117.458 16.2865L117.709 15.8415L117.301 15.572L117.05 16.017L117.458 16.2865ZM100.023 64.9823L99.5447 64.9577L99.5447 64.9577L100.023 64.9823ZM100.008 65.2963L99.5507 65.4538L100.486 65.3178L100.008 65.2963ZM98.3908 50.0651L97.9126 50.0404L97.9126 50.0404L98.3908 50.0651ZM115.745 1.64895L116.153 1.91843L116.404 1.47342L115.996 1.20395L115.745 1.64895ZM102.098 97.021L101.63 96.9145L102.528 97.2469L102.098 97.021ZM102.63 94.5595L102.217 94.2995L102.183 94.3634L102.166 94.435L102.63 94.5595ZM102.333 96.5014L102.762 96.7292L102.772 96.7072L102.78 96.6844L102.333 96.5014ZM102.932 94.8428L103.377 95.034L103.44 94.8622L103.39 94.6861L102.932 94.8428ZM102.778 94.2849L103.238 94.1355L102.926 92.9805L102.365 94.0249L102.778 94.2849ZM103.262 93.9622L102.802 94.1096L103.181 95.5375L103.705 94.1576L103.262 93.9622ZM103.162 93.5748L102.749 93.3131L102.646 93.5042L102.7 93.7171L103.162 93.5748ZM104.038 91.9716L104.477 92.176L103.628 91.7067L104.038 91.9716ZM104.529 87.7222L104.949 87.4685L104.431 86.4485L104.077 87.5544L104.529 87.7222ZM105.132 88.8647L105.54 89.134L105.692 88.8653L105.544 88.5963L105.132 88.8647ZM103.163 92.408L102.703 92.2688L103.574 92.6715L103.163 92.408ZM102.449 92.9821L102.911 93.1165L102.944 92.9832L102.913 92.8498L102.449 92.9821ZM102.12 94.3339L102.533 94.5932L102.567 94.5299L102.584 94.459L102.12 94.3339ZM102.156 91.6444L102.623 91.5293L101.678 91.6032L102.156 91.6444ZM102.046 93.3273L102.525 93.352L102.525 93.352L102.046 93.3273ZM101.998 94.5601L101.52 94.548L102.412 94.8194L101.998 94.5601ZM105.361 90.2011L104.925 89.9881L105.78 90.4488L105.361 90.2011ZM105.609 89.711L106.028 89.9601L106.165 89.6909L106.015 89.4321L105.609 89.711ZM105.585 89.6696L105.991 89.3907L105.522 88.5793L105.15 89.4545L105.585 89.6696ZM105.914 89.1145L105.505 89.3895L105.933 90.1435L106.332 89.3652L105.914 89.1145ZM109.331 82.7007L109.741 82.9656L109.934 82.6155L109.669 82.3301L109.331 82.7007ZM105.862 89.0228L105.428 88.8051L105.318 89.0598L105.453 89.2978L105.862 89.0228ZM108.958 82.2939L109.3 81.9275L108.842 81.4229L108.535 82.0528L108.958 82.2939ZM107.224 80.27L107.585 79.9253L107.087 79.3101L106.785 80.065L107.224 80.27ZM108.558 81.8475L108.98 82.0892L109.143 81.7561L108.904 81.4857L108.558 81.8475ZM104.775 86.9646L104.324 86.7926L104.252 87.0098L104.352 87.2121L104.775 86.9646ZM105.523 88.4113L105.11 88.6778L105.569 89.5229L105.956 88.6304L105.523 88.4113ZM102.752 91.8146L102.285 91.9337L102.696 93.8867L103.212 91.9566L102.752 91.8146ZM104.179 87.0159L104.63 87.1865L104.7 86.9719L104.603 86.7713L104.179 87.0159ZM102.351 89.6243L101.875 89.5643L101.867 89.6401L101.879 89.7153L102.351 89.6243ZM103.114 84.6237L103.553 84.4106L102.949 82.928L102.645 84.5216L103.114 84.6237ZM104.432 86.2496L104.005 86.4877L104.503 87.5547L104.882 86.4244L104.432 86.2496ZM106.828 79.773L107.266 79.9791L107.387 79.6805L107.193 79.4339L106.828 79.773ZM103.313 83.6171L102.846 83.5073L102.813 83.6682L102.871 83.8199L103.313 83.6171ZM104.923 77.155L105.311 76.8464L104.753 76.0168L104.467 77.0012L104.923 77.155ZM103.899 75.555L103.499 75.844L103.499 75.844L103.899 75.555ZM104.527 76.5541L104.983 76.7104L105.056 76.4637L104.919 76.2528L104.527 76.5541ZM102.52 73.1074L102.938 72.8494L102.274 71.5721L102.048 73.024L102.52 73.1074ZM101.876 79.0933L101.398 79.0647L101.393 79.1517L101.414 79.2355L101.876 79.0933ZM102.957 82.6509L102.51 82.8408L103.067 84.411L103.423 82.767L102.957 82.6509ZM101.802 80.8946L102.258 80.7309L101.324 80.8844L101.802 80.8946ZM102.742 83.6757L103.21 83.7842L103.242 83.6252L103.185 83.4752L102.742 83.6757ZM102.071 87.5232L101.595 87.5881L102.544 87.601L102.071 87.5232ZM101.458 77.2909L100.991 77.4094L101.935 77.3366L101.458 77.2909ZM102.1 72.2751L102.571 72.3645L102.601 72.1867L102.523 72.0279L102.1 72.2751ZM100.508 68.583L100.952 68.3844L100.029 68.5961L100.508 68.583ZM98.1661 96.2877L98.417 95.8427L98.0091 95.5732L97.7582 96.0182L98.1661 96.2877ZM80.7313 144.984L81.2095 145.008L81.2095 145.008L80.7313 144.984ZM98.6323 96.5956L99.0402 96.8651L99.2911 96.4201L98.8831 96.1506L98.6323 96.5956ZM81.2777 145.012L80.7994 144.987L80.7994 144.987L81.2777 145.012ZM87.2432 170.171L86.8431 170.46L87.2432 170.171ZM112.613 191.285L112.808 190.808L112.808 190.808L112.613 191.285ZM184.223 194.953L184.125 194.444L184.122 194.445L184.223 194.953ZM184.224 194.953L184.322 195.461L184.325 195.46L184.224 194.953ZM189.241 193.761L189.144 193.252L189.144 193.252L189.241 193.761ZM213.094 193.542L212.887 194.012L212.887 194.012L213.094 193.542ZM226.704 219.999L226.795 220.51L227.265 220.407L227.174 219.897L226.704 219.999ZM226.167 220.116L225.696 220.218L225.787 220.728L226.257 220.626L226.167 220.116ZM212.857 194.079L212.65 194.55L212.65 194.55L212.857 194.079ZM189.351 194.342L189.255 193.833L189.255 193.833L189.351 194.342ZM184.334 195.534L184.435 196.042L184.435 196.042L184.334 195.534ZM112.39 191.83L112.585 191.353L112.585 191.353L112.39 191.83ZM86.7861 170.502L87.1861 170.213L86.7861 170.502ZM72.7378 151.353L73.216 151.378L73.216 151.378L72.7378 151.353ZM90.1727 102.657L90.4236 102.212L90.0156 101.943L89.7647 102.388L90.1727 102.657ZM78.7926 176.871L78.3926 177.16L78.3926 177.16L78.7926 176.871ZM104.396 198.199L104.591 197.723L104.591 197.723L104.396 198.199ZM176.34 201.904L176.441 202.412L176.441 202.412L176.34 201.904ZM181.357 200.712L181.261 200.203L181.261 200.203L181.357 200.712ZM204.864 200.449L204.657 200.92L204.657 200.92L204.864 200.449ZM218.173 226.486L217.703 226.588L217.794 227.098L218.264 226.996L218.173 226.486ZM218.71 226.369L218.801 226.879L219.271 226.777L219.181 226.267L218.71 226.369ZM205.101 199.911L204.893 200.382L204.893 200.382L205.101 199.911ZM181.247 200.131L181.151 199.622L181.151 199.622L181.247 200.131ZM176.231 201.322L176.329 201.831L176.331 201.83L176.231 201.322ZM176.23 201.322L176.132 200.814L176.129 200.815L176.23 201.322ZM104.619 197.655L104.814 197.178L104.814 197.178L104.619 197.655ZM79.2497 176.541L79.6497 176.252L79.6497 176.252L79.2497 176.541ZM73.2842 151.381L72.806 151.357L72.806 151.357L73.2842 151.381ZM90.6388 102.965L91.0467 103.235L91.2976 102.79L90.8897 102.52L90.6388 102.965ZM81.5239 108.179L81.7748 107.734L81.3668 107.465L81.1159 107.91L81.5239 108.179ZM64.089 156.875L64.5672 156.9L64.5672 156.9L64.089 156.875ZM81.99 108.487L82.3979 108.756L82.6488 108.311L82.2409 108.042L81.99 108.487ZM64.6354 156.903L64.1572 156.878L64.1572 156.878L64.6354 156.903ZM70.6009 182.063L71.0009 181.774L71.0009 181.774L70.6009 182.063ZM95.9704 203.176L96.1654 202.7L96.1654 202.7L95.9704 203.176ZM167.581 206.844L167.681 207.352L167.681 207.352L167.581 206.844ZM172.599 205.652L172.695 206.161L172.695 206.161L172.599 205.652ZM196.452 205.433L196.659 204.963L196.659 204.963L196.452 205.433ZM210.062 231.891L210.152 232.401L210.623 232.299L210.532 231.789L210.062 231.891ZM209.524 232.007L209.054 232.109L209.145 232.62L209.615 232.517L209.524 232.007ZM196.215 205.971L196.422 205.5L196.422 205.5L196.215 205.971ZM172.709 206.234L172.612 205.725L172.612 205.725L172.709 206.234ZM167.692 207.426L167.792 207.934L167.792 207.934L167.692 207.426ZM95.7475 203.721L95.9425 203.244L95.9425 203.244L95.7475 203.721ZM70.1438 182.393L69.7438 182.682L69.7438 182.682L70.1438 182.393ZM55.0511 161.865L55.5294 161.89L55.5294 161.89L55.0511 161.865ZM72.486 113.169L72.7369 112.724L72.329 112.455L72.0781 112.9L72.486 113.169ZM61.106 187.383L61.506 187.094L61.506 187.094L61.106 187.383ZM86.7096 208.711L86.9047 208.234L86.9047 208.234L86.7096 208.711ZM158.654 212.416L158.754 212.924L158.763 212.921L158.772 212.919L158.654 212.416ZM158.654 212.416L158.553 211.908L158.544 211.91L158.535 211.912L158.654 212.416ZM158.658 212.415L158.759 212.922L158.76 212.922L158.658 212.415ZM158.661 212.414L158.56 211.906L158.559 211.906L158.661 212.414ZM163.671 211.224L163.574 210.715L163.574 210.715L163.671 211.224ZM187.177 210.961L187.384 210.49L187.384 210.49L187.177 210.961ZM200.487 236.997L200.016 237.099L200.107 237.61L200.577 237.507L200.487 236.997ZM201.024 236.881L201.115 237.391L201.585 237.289L201.494 236.779L201.024 236.881ZM187.414 210.423L187.621 209.953L187.621 209.953L187.414 210.423ZM163.561 210.642L163.657 211.151L163.657 211.151L163.561 210.642ZM158.543 211.834L158.442 211.326L158.408 211.335L158.374 211.348L158.543 211.834ZM158.543 211.834L158.643 212.342L158.678 212.334L158.711 212.32L158.543 211.834ZM86.9325 208.166L87.1276 207.69L87.1276 207.69L86.9325 208.166ZM61.5631 187.053L61.9631 186.764L61.9631 186.764L61.5631 187.053ZM55.5975 161.893L55.1193 161.868L55.1193 161.868L55.5975 161.893ZM72.9521 113.477L73.3601 113.746L73.611 113.301L73.203 113.032L72.9521 113.477ZM63.2594 117.898L63.5103 117.453L63.1023 117.184L62.8515 117.629L63.2594 117.898ZM45.8245 166.594L45.3463 166.569L45.3463 166.569L45.8245 166.594ZM63.7255 118.206L64.1335 118.476L64.3843 118.031L63.9764 117.761L63.7255 118.206ZM46.3709 166.622L46.8491 166.647L46.8491 166.647L46.3709 166.622ZM52.3364 191.782L51.9364 192.071L52.3364 191.782ZM77.7059 212.896L77.5108 213.372L77.5108 213.372L77.7059 212.896ZM149.316 216.563L149.417 217.071L149.452 217.063L149.485 217.049L149.316 216.563ZM149.316 216.563L149.216 216.055L149.181 216.064L149.148 216.078L149.316 216.563ZM154.334 215.371L154.43 215.88L154.43 215.88L154.334 215.371ZM178.187 215.152L178.394 214.682L178.394 214.682L178.187 215.152ZM191.797 241.61L191.888 242.12L192.358 242.018L192.267 241.508L191.797 241.61ZM191.26 241.727L190.79 241.829L190.88 242.339L191.351 242.237L191.26 241.727ZM177.951 215.69L178.158 215.219L178.158 215.219L177.951 215.69ZM154.444 215.953L154.348 215.444L154.348 215.444L154.444 215.953ZM149.427 217.145L149.528 217.653L149.528 217.653L149.427 217.145ZM77.483 213.44L77.6781 212.963L77.6781 212.963L77.483 213.44ZM51.8794 192.112L52.2794 191.823L52.2794 191.823L51.8794 192.112ZM36.5702 171.279L37.0484 171.304L37.0484 171.304L36.5702 171.279ZM54.0051 122.583L54.256 122.138L53.8481 121.869L53.5972 122.314L54.0051 122.583ZM42.6251 196.797L43.0251 196.508L43.0251 196.508L42.6251 196.797ZM68.2287 218.125L68.4238 217.648L68.4238 217.648L68.2287 218.125ZM140.173 221.83L140.274 222.338L140.283 222.336L140.292 222.333L140.173 221.83ZM140.173 221.83L140.073 221.322L140.064 221.324L140.055 221.327L140.173 221.83ZM140.177 221.829L140.278 222.337L140.279 222.336L140.177 221.829ZM140.18 221.828L140.08 221.32L140.079 221.321L140.18 221.828ZM145.19 220.638L145.094 220.129L145.094 220.129L145.19 220.638ZM168.696 220.375L168.489 220.846L168.489 220.846L168.696 220.375ZM182.006 246.412L181.535 246.514L181.626 247.024L182.096 246.922L182.006 246.412ZM182.543 246.295L182.634 246.805L183.104 246.703L183.013 246.193L182.543 246.295ZM168.933 219.837L169.14 219.367L169.14 219.367L168.933 219.837ZM145.08 220.056L145.176 220.565L145.176 220.565L145.08 220.056ZM140.062 221.248L139.961 220.74L139.927 220.749L139.893 220.763L140.062 221.248ZM140.062 221.248L140.163 221.756L140.197 221.748L140.231 221.734L140.062 221.248ZM68.4516 217.581L68.2565 218.057L68.2565 218.057L68.4516 217.581ZM43.0821 196.467L42.6821 196.756L43.0821 196.467ZM37.1166 171.307L36.6384 171.283L36.6384 171.283L37.1166 171.307ZM54.4712 122.891L54.8792 123.161L55.1301 122.716L54.7221 122.446L54.4712 122.891ZM44.8319 127.388L45.0827 126.943L44.6748 126.673L44.4239 127.118L44.8319 127.388ZM27.397 176.083L26.9188 176.059L26.9188 176.059L27.397 176.083ZM45.298 127.695L45.7059 127.965L45.9568 127.52L45.5489 127.251L45.298 127.695ZM27.9434 176.112L28.4216 176.136L28.4216 176.136L27.9434 176.112ZM33.9089 201.271L33.5089 201.56L33.5089 201.56L33.9089 201.271ZM59.2783 222.385L59.0833 222.861L59.0833 222.861L59.2783 222.385ZM130.889 226.053L130.989 226.561L131.024 226.552L131.057 226.538L130.889 226.053ZM130.889 226.053L130.788 225.545L130.753 225.553L130.72 225.567L130.889 226.053ZM135.907 224.861L136.003 225.37L136.003 225.37L135.907 224.861ZM159.76 224.642L159.967 224.171L159.967 224.171L159.76 224.642ZM173.37 251.099L173.46 251.609L173.931 251.507L173.84 250.997L173.37 251.099ZM172.832 251.216L172.362 251.318L172.453 251.828L172.923 251.726L172.832 251.216ZM159.523 225.179L159.316 225.65L159.316 225.65L159.523 225.179ZM136.017 225.442L135.92 224.933L135.92 224.933L136.017 225.442ZM131 226.634L131.1 227.142L131.1 227.142L131 226.634ZM59.0554 222.929L59.2505 222.453L59.2505 222.453L59.0554 222.929ZM33.4518 201.602L33.8518 201.313L33.8518 201.313L33.4518 201.602ZM18.3971 181.127L18.8753 181.152L18.8753 181.152L18.3971 181.127ZM35.832 132.431L36.0829 131.986L35.6749 131.717L35.424 132.162L35.832 132.431ZM24.4519 206.645L24.852 206.356L24.852 206.356L24.4519 206.645ZM50.0556 227.973L50.2506 227.496L50.2506 227.496L50.0556 227.973ZM122 231.678L122.1 232.186L122.109 232.184L122.118 232.181L122 231.678ZM122 231.678L121.899 231.17L121.89 231.172L121.881 231.175L122 231.678ZM122.004 231.677L122.105 232.185L122.106 232.184L122.004 231.677ZM122.007 231.676L121.906 231.168L121.905 231.168L122.007 231.676ZM127.017 230.486L126.92 229.977L126.92 229.977L127.017 230.486ZM150.523 230.223L150.316 230.693L150.316 230.693L150.523 230.223ZM163.832 256.26L163.362 256.362L163.453 256.872L163.923 256.77L163.832 256.26ZM164.37 256.143L164.461 256.653L164.931 256.551L164.84 256.041L164.37 256.143ZM150.76 229.685L150.967 229.215L150.967 229.215L150.76 229.685ZM126.907 229.904L127.003 230.413L127.003 230.413L126.907 229.904ZM121.889 231.096L121.788 230.588L121.754 230.597L121.72 230.611L121.889 231.096ZM121.889 231.096L121.989 231.604L122.024 231.596L122.057 231.582L121.889 231.096ZM50.2785 227.428L50.4735 226.952L50.4735 226.952L50.2785 227.428ZM24.909 206.315L24.509 206.604L24.509 206.604L24.909 206.315ZM18.9435 181.155L18.4653 181.131L18.4653 181.131L18.9435 181.155ZM36.2981 132.739L36.706 133.009L36.9569 132.564L36.549 132.294L36.2981 132.739ZM27.0673 137.794L27.3182 137.349L26.9103 137.08L26.6594 137.525L27.0673 137.794ZM9.63246 186.49L9.15425 186.466L9.15425 186.466L9.63246 186.49ZM27.5335 138.102L27.9414 138.372L28.1923 137.927L27.7844 137.657L27.5335 138.102ZM10.1789 186.518L10.6571 186.543L10.6571 186.543L10.1789 186.518ZM16.1444 211.678L15.7443 211.967L16.1444 211.678ZM41.5138 232.792L41.7089 232.315L41.7089 232.315L41.5138 232.792ZM113.124 236.459L113.225 236.967L113.26 236.959L113.293 236.945L113.124 236.459ZM113.124 236.459L113.024 235.952L112.989 235.96L112.956 235.974L113.124 236.459ZM118.142 235.268L118.238 235.776L118.238 235.776L118.142 235.268ZM141.995 235.048L142.202 234.578L142.202 234.578L141.995 235.048ZM155.605 261.506L155.696 262.016L156.166 261.914L156.075 261.404L155.605 261.506ZM155.068 261.623L154.598 261.725L154.688 262.235L155.159 262.133L155.068 261.623ZM141.758 235.586L141.551 236.057L141.551 236.057L141.758 235.586ZM118.252 235.849L118.156 235.34L118.156 235.34L118.252 235.849ZM113.239 237.04L113.139 236.532L113.139 236.532L113.239 237.04ZM113.235 237.041L113.135 236.533L113.126 236.535L113.117 236.538L113.235 237.041ZM113.235 237.041L113.336 237.549L113.345 237.547L113.354 237.544L113.235 237.041ZM41.2909 233.336L41.486 232.86L41.486 232.86L41.2909 233.336ZM15.6873 212.008L16.0873 211.719L15.6873 212.008ZM1.14651 192.227L0.668304 192.203L0.668304 192.203L1.14651 192.227ZM18.5814 143.532L18.8323 143.087L18.4244 142.817L18.1735 143.262L18.5814 143.532ZM7.20136 217.745L6.80134 218.034L7.20136 217.745ZM32.805 239.073L33.0001 238.597L33.0001 238.597L32.805 239.073ZM104.749 242.778L104.85 243.286L104.85 243.286L104.749 242.778ZM109.766 241.586L109.67 241.077L109.67 241.077L109.766 241.586ZM133.273 241.323L133.065 241.794L133.065 241.794L133.273 241.323ZM146.582 267.36L146.112 267.462L146.202 267.972L146.673 267.87L146.582 267.36ZM147.119 267.243L147.21 267.753L147.68 267.651L147.589 267.141L147.119 267.243ZM133.509 240.786L133.716 240.315L133.716 240.315L133.509 240.786ZM109.656 241.005L109.752 241.514L109.752 241.514L109.656 241.005ZM104.638 242.197L104.739 242.705L104.739 242.705L104.638 242.197ZM33.0279 238.529L33.223 238.052L33.223 238.052L33.0279 238.529ZM7.65843 217.415L8.05845 217.126L8.05845 217.126L7.65843 217.415ZM1.69292 192.256L2.17113 192.28L2.17113 192.28L1.69292 192.256ZM19.0475 143.839L19.4555 144.109L19.7063 143.664L19.2984 143.394L19.0475 143.839ZM98.3226 50.0616C99.1929 32.6633 108.187 14.9136 115.687 1.61053L114.871 1.07158C107.376 14.3656 98.2512 32.321 97.3662 50.0123L98.3226 50.0616ZM100.41 66.8386C98.6229 61.3992 98.038 55.7517 98.3226 50.0616L97.3662 50.0123C97.0758 55.8178 97.6715 61.6058 99.5072 67.1943L100.41 66.8386ZM101.786 79.0191C100.793 75.0914 100.384 71.0718 100.437 67.0203L99.4795 67.0126C99.4251 71.1504 99.8431 75.2686 100.862 79.301L101.786 79.0191ZM101.786 79.4874C101.791 79.3874 101.797 79.2875 101.802 79.1876L100.846 79.1324C100.841 79.2343 100.835 79.3361 100.83 79.438L101.786 79.4874ZM102.27 89.5525C101.755 86.2361 101.617 82.8694 101.786 79.4873L100.83 79.438C100.657 82.8881 100.798 86.3322 101.326 89.7324L102.27 89.5525ZM101.978 93.3238C102.039 92.118 102.138 90.9101 102.273 89.7018L101.322 89.5831C101.185 90.8134 101.083 92.0444 101.022 93.2745L101.978 93.3238ZM101.911 95.6252C101.917 94.8591 101.94 94.0919 101.978 93.3238L101.022 93.2745C100.983 94.058 100.96 94.8412 100.954 95.6236L101.911 95.6252ZM88.2389 137.473C88.9665 122.928 95.3739 108.128 101.847 95.8811L101.017 95.3677C94.5304 107.641 88.023 122.62 87.2825 137.423L88.2389 137.473ZM94.2155 162.677C89.3971 154.762 87.8041 146.164 88.2389 137.473L87.2825 137.423C86.8385 146.298 88.4661 155.125 93.4155 163.255L94.2155 162.677ZM119.614 183.817C107.092 177.845 99.0351 170.594 94.2155 162.677L93.4155 163.255C98.3607 171.378 106.582 178.741 119.224 184.771L119.614 183.817ZM191.263 187.491C172.745 191.953 148.769 197.724 119.614 183.817L119.224 184.771C148.682 198.822 172.929 192.973 191.464 188.507L191.263 187.491ZM196.284 186.298C194.657 186.673 192.983 187.076 191.263 187.491L191.464 188.507C193.185 188.092 194.855 187.69 196.477 187.316L196.284 186.298ZM220.094 186.073C213.815 182.847 205.835 184.095 196.284 186.298L196.477 187.316C206.08 185.101 213.736 183.96 219.679 187.014L220.094 186.073ZM233.666 212.478C230.914 197.006 226.392 189.309 220.094 186.073L219.679 187.014C225.553 190.032 229.989 197.299 232.726 212.683L233.666 212.478ZM233.643 211.954L233.105 212.07L233.287 213.091L233.824 212.974L233.643 211.954ZM219.916 186.477C226.032 189.619 230.517 197.131 233.263 212.566L234.204 212.362C231.442 196.838 226.871 188.896 220.331 185.536L219.916 186.477ZM196.367 186.734C205.94 184.527 213.781 183.324 219.916 186.477L220.331 185.536C213.86 182.211 205.696 183.521 196.174 185.716L196.367 186.734ZM191.353 187.925C193.073 187.511 194.743 187.108 196.367 186.734L196.174 185.716C194.546 186.092 192.871 186.495 191.152 186.909L191.353 187.925ZM119.447 184.226C148.736 198.197 172.82 192.389 191.353 187.925L191.152 186.909C172.637 191.369 148.823 197.099 119.837 183.273L119.447 184.226ZM93.8726 162.925C98.746 170.93 106.874 178.229 119.447 184.226L119.837 183.273C107.384 177.333 99.4203 170.146 94.6726 162.347L93.8726 162.925ZM87.8289 137.452C87.3902 146.221 88.998 154.918 93.8726 162.925L94.6726 162.347C89.929 154.555 88.3558 146.087 88.7853 137.501L87.8289 137.452ZM101.021 96.5576C94.7097 108.629 88.5448 123.14 87.8289 137.452L88.7853 137.501C89.4885 123.443 95.557 109.109 101.853 97.0666L101.021 96.5576ZM101.929 97.4595C101.923 97.2399 101.919 97.0201 101.915 96.8001L100.958 96.8241C100.961 97.0488 100.966 97.2735 100.972 97.4981L101.929 97.4595ZM101.62 99.2649C101.713 98.7033 101.813 98.1418 101.92 97.5808L100.982 97.3768C100.873 97.9465 100.772 98.5169 100.677 99.0877L101.62 99.2649ZM93.9869 128.53C94.4812 118.649 97.5976 108.644 101.582 99.3941L100.715 98.9585C96.7045 108.269 93.5341 118.412 93.0305 128.48L93.9869 128.53ZM99.9636 153.734C95.1452 145.819 93.5522 137.221 93.9869 128.53L93.0305 128.48C92.5866 137.355 94.2142 146.182 99.1635 154.312L99.9636 153.734ZM125.362 174.874C112.84 168.901 104.783 161.651 99.9636 153.734L99.1635 154.312C104.109 162.435 112.33 169.797 124.972 175.827L125.362 174.874ZM197.011 178.548C178.493 183.01 154.517 188.781 125.362 174.874L124.972 175.827C154.43 189.879 178.677 184.03 197.212 179.564L197.011 178.548ZM202.032 177.355C200.406 177.73 198.731 178.133 197.011 178.548L197.212 179.564C198.933 179.149 200.603 178.746 202.225 178.372L202.032 177.355ZM225.842 177.13C219.563 173.904 211.583 175.152 202.032 177.355L202.225 178.372C211.828 176.158 219.484 175.017 225.427 178.071L225.842 177.13ZM239.414 203.535C236.662 188.062 232.14 180.366 225.842 177.13L225.427 178.071C231.301 181.089 235.737 188.356 238.474 203.739L239.414 203.535ZM239.391 203.011L238.853 203.127L239.035 204.147L239.572 204.031L239.391 203.011ZM225.664 177.534C231.78 180.676 236.265 188.188 239.011 203.623L239.952 203.419C237.19 187.895 232.619 179.953 226.079 176.593L225.664 177.534ZM202.115 177.791C211.688 175.583 219.529 174.381 225.664 177.534L226.079 176.593C219.608 173.268 211.444 174.578 201.922 176.773L202.115 177.791ZM197.101 178.982C198.821 178.568 200.491 178.165 202.115 177.791L201.922 176.773C200.294 177.149 198.619 177.552 196.9 177.966L197.101 178.982ZM125.195 175.283C154.484 189.254 178.568 183.446 197.101 178.982L196.9 177.966C178.385 182.426 154.571 188.156 125.585 174.33L125.195 175.283ZM99.6206 153.982C104.494 161.987 112.622 169.285 125.195 175.283L125.585 174.33C113.132 168.389 105.168 161.202 100.421 153.404L99.6206 153.982ZM93.5769 128.508C93.1382 137.278 94.7461 145.975 99.6206 153.982L100.421 153.404C95.6771 145.612 94.1038 137.144 94.5333 128.558L93.5769 128.508ZM100.139 101.765C96.6688 110.306 94.0303 119.444 93.5769 128.508L94.5333 128.558C94.9781 119.666 97.5704 110.657 101.015 102.18L100.139 101.765ZM98.2173 118.097C98.484 112.766 99.5144 107.396 101.034 102.125L100.12 101.82C98.5824 107.154 97.5329 112.611 97.2609 118.048L98.2173 118.097ZM104.194 143.302C99.3755 135.387 97.7825 126.789 98.2173 118.097L97.2609 118.048C96.8169 126.923 98.4445 135.75 103.394 143.88L104.194 143.302ZM129.593 164.442C117.071 158.469 109.013 151.218 104.194 143.302L103.394 143.88C108.339 152.003 116.561 159.365 129.202 165.395L129.593 164.442ZM201.241 168.116C182.723 172.578 158.747 178.349 129.593 164.442L129.202 165.395C158.661 179.447 182.907 173.598 201.442 169.131L201.241 168.116ZM206.262 166.923C204.636 167.298 202.961 167.701 201.241 168.116L201.442 169.131C203.163 168.717 204.834 168.314 206.455 167.94L206.262 166.923ZM230.072 166.698C223.793 163.472 215.814 164.72 206.262 166.923L206.455 167.94C216.059 165.726 223.714 164.585 229.658 167.639L230.072 166.698ZM243.645 193.103C240.892 177.63 236.37 169.934 230.072 166.698L229.658 167.639C235.531 170.657 239.968 177.923 242.704 193.307L243.645 193.103ZM243.621 192.578L243.084 192.695L243.265 193.715L243.803 193.599L243.621 192.578ZM229.895 167.101C236.011 170.244 240.496 177.756 243.242 193.191L244.182 192.986C241.42 177.463 236.849 169.521 230.309 166.16L229.895 167.101ZM206.345 167.359C215.919 165.151 223.76 163.949 229.895 167.101L230.309 166.16C223.839 162.836 215.674 164.145 206.152 166.341L206.345 167.359ZM201.331 168.55C203.051 168.136 204.722 167.733 206.345 167.359L206.152 166.341C204.524 166.717 202.849 167.12 201.13 167.534L201.331 168.55ZM129.425 164.851C158.715 178.821 182.799 173.014 201.331 168.55L201.13 167.534C182.615 171.994 158.801 177.724 129.816 163.898L129.425 164.851ZM103.851 143.549C108.724 151.555 116.852 158.853 129.425 164.851L129.816 163.898C117.362 157.957 109.399 150.77 104.651 142.971L103.851 143.549ZM97.8073 118.076C97.3686 126.846 98.9764 135.542 103.851 143.549L104.651 142.971C99.9074 135.179 98.3342 126.712 98.7637 118.125L97.8073 118.076ZM100.044 104.171C98.8465 108.763 98.0397 113.429 97.8073 118.076L98.7637 118.125C98.9916 113.57 99.7833 108.982 100.966 104.448L100.044 104.171ZM100.853 106.283C100.885 105.64 100.928 104.997 100.982 104.353L100.028 104.266C99.9731 104.922 99.929 105.578 99.8962 106.234L100.853 106.283ZM106.829 131.488C102.011 123.573 100.418 114.974 100.853 106.283L99.8962 106.234C99.4523 115.109 101.08 123.936 106.029 132.066L106.829 131.488ZM132.228 152.628C119.706 146.655 111.649 139.404 106.829 131.488L106.029 132.066C110.974 140.189 119.196 147.551 131.838 153.581L132.228 152.628ZM203.876 156.302C185.359 160.764 161.383 166.535 132.228 152.628L131.838 153.581C161.296 167.632 185.542 161.784 204.078 157.317L203.876 156.302ZM208.898 155.108C207.271 155.484 205.597 155.887 203.876 156.302L204.078 157.317C205.799 156.903 207.469 156.5 209.09 156.126L208.898 155.108ZM232.708 154.884C226.429 151.658 218.449 152.906 208.898 155.108L209.09 156.126C218.694 153.912 226.35 152.771 232.293 155.825L232.708 154.884ZM246.28 181.289C243.527 165.816 239.005 158.12 232.708 154.884L232.293 155.825C238.167 158.843 242.603 166.109 245.34 181.493L246.28 181.289ZM246.256 180.764L245.719 180.881L245.901 181.901L246.438 181.785L246.256 180.764ZM232.53 155.287C238.646 158.43 243.131 165.942 245.877 181.376L246.817 181.172C244.056 165.649 239.485 157.707 232.944 154.346L232.53 155.287ZM208.98 155.545C218.554 153.337 226.395 152.135 232.53 155.287L232.944 154.346C226.474 151.022 218.309 152.331 208.788 154.527L208.98 155.545ZM203.967 156.736C205.687 156.321 207.357 155.919 208.98 155.545L208.788 154.527C207.159 154.902 205.485 155.306 203.766 155.72L203.967 156.736ZM132.061 153.037C161.35 167.007 185.434 161.2 203.967 156.736L203.766 155.72C185.25 160.18 161.437 165.91 132.451 152.083L132.061 153.037ZM106.486 131.735C111.36 139.741 119.488 147.039 132.061 153.037L132.451 152.083C119.997 146.143 112.034 138.956 107.286 131.157L106.486 131.735ZM100.443 106.262C100.004 115.032 101.612 123.728 106.486 131.735L107.286 131.157C102.543 123.365 100.97 114.898 101.399 106.311L100.443 106.262ZM100.94 101.007C100.699 102.758 100.53 104.511 100.443 106.262L101.399 106.311C101.485 104.595 101.651 102.875 101.887 101.154L100.94 101.007ZM101.165 100.247C101.095 100.472 101.027 100.697 100.959 100.922L101.869 101.239C101.936 101.017 102.004 100.795 102.072 100.573L101.165 100.247ZM107.955 118.528C104.441 112.755 102.643 106.622 102.095 100.357L101.142 100.463C101.704 106.883 103.548 113.181 107.155 119.106L107.955 118.528ZM133.354 139.669C120.832 133.696 112.774 126.445 107.955 118.528L107.155 119.106C112.1 127.229 120.322 134.592 132.963 140.622L133.354 139.669ZM205.002 143.342C186.484 147.804 162.508 153.575 133.354 139.669L132.963 140.622C162.422 154.673 186.668 148.824 205.203 144.358L205.002 143.342ZM210.023 142.149C208.397 142.524 206.722 142.928 205.002 143.342L205.203 144.358C206.924 143.943 208.595 143.541 210.216 143.167L210.023 142.149ZM233.833 141.924C227.554 138.698 219.575 139.947 210.023 142.149L210.216 143.167C219.819 140.952 227.475 139.812 233.419 142.866L233.833 141.924ZM247.406 168.33C244.653 152.857 240.131 145.161 233.833 141.924L233.419 142.866C239.292 145.884 243.728 153.15 246.465 168.534L247.406 168.33ZM247.382 167.805L246.845 167.922L247.026 168.942L247.563 168.825L247.382 167.805ZM233.656 142.328C239.771 145.471 244.257 152.982 247.002 168.417L247.943 168.213C245.181 152.689 240.61 144.748 234.07 141.387L233.656 142.328ZM210.106 142.585C219.68 140.378 227.52 139.175 233.656 142.328L234.07 141.387C227.6 138.062 219.435 139.372 209.913 141.568L210.106 142.585ZM205.092 143.776C206.812 143.362 208.483 142.96 210.106 142.585L209.913 141.568C208.285 141.943 206.61 142.347 204.891 142.761L205.092 143.776ZM133.186 140.077C162.476 154.048 186.56 148.24 205.092 143.776L204.891 142.761C186.376 147.22 162.562 152.95 133.576 139.124L133.186 140.077ZM107.612 118.776C112.485 126.781 120.613 134.08 133.186 140.077L133.576 139.124C121.123 133.184 113.16 125.997 108.412 118.198L107.612 118.776ZM101.587 99.0431C101.99 105.848 103.806 112.524 107.612 118.776L108.412 118.198C104.705 112.11 102.936 105.612 102.543 98.9693L101.587 99.0431ZM102.386 96.558C102.12 97.3139 101.862 98.0732 101.614 98.8355L102.516 99.177C102.762 98.4231 103.017 97.6718 103.28 96.9236L102.386 96.558ZM102.809 95.631C102.673 95.9241 102.538 96.218 102.404 96.5129L103.262 96.9687C103.396 96.6759 103.529 96.384 103.664 96.093L102.809 95.631ZM107.763 104.692C105.986 101.773 104.649 98.7628 103.69 95.6919L102.783 96.0322C103.768 99.1864 105.141 102.276 106.963 105.27L107.763 104.692ZM133.162 125.832C120.64 119.859 112.583 112.608 107.763 104.692L106.963 105.27C111.908 113.393 120.13 120.755 132.772 126.785L133.162 125.832ZM204.81 129.506C186.293 133.968 162.317 139.739 133.162 125.832L132.772 126.785C162.23 140.837 186.476 134.988 205.012 130.521L204.81 129.506ZM209.832 128.313C208.205 128.688 206.53 129.091 204.81 129.506L205.012 130.521C206.733 130.107 208.403 129.704 210.024 129.33L209.832 128.313ZM233.641 128.088C227.363 124.862 219.383 126.11 209.832 128.313L210.024 129.33C219.628 127.116 227.283 125.975 233.227 129.029L233.641 128.088ZM247.214 154.493C244.461 139.02 239.939 131.324 233.641 128.088L233.227 129.029C239.101 132.047 243.537 139.314 246.273 154.697L247.214 154.493ZM247.19 153.968L246.653 154.085L246.834 155.105L247.372 154.989L247.19 153.968ZM233.464 128.491C239.58 131.634 244.065 139.146 246.811 154.581L247.751 154.376C244.99 138.853 240.419 130.911 233.878 127.55L233.464 128.491ZM209.914 128.749C219.488 126.541 227.329 125.339 233.464 128.491L233.878 127.55C227.408 124.226 219.243 125.536 209.721 127.731L209.914 128.749ZM204.901 129.94C206.62 129.526 208.291 129.123 209.914 128.749L209.721 127.731C208.093 128.107 206.418 128.51 204.699 128.924L204.901 129.94ZM132.995 126.241C162.284 140.212 186.368 134.404 204.901 129.94L204.699 128.924C186.184 133.384 162.371 139.114 133.385 125.288L132.995 126.241ZM107.42 104.94C112.294 112.945 120.421 120.243 132.995 126.241L133.385 125.288C120.931 119.347 112.968 112.16 108.22 104.361L107.42 104.94ZM103.13 95.2748C104.11 98.5794 105.517 101.813 107.42 104.94L108.22 104.361C106.365 101.314 104.996 98.1655 104.042 94.9494L103.13 95.2748ZM105.525 90.031C104.724 91.6123 103.932 93.23 103.159 94.8786L104.012 95.3456C104.78 93.708 105.567 92.1002 106.363 90.5275L105.525 90.031ZM106.478 90.2114C106.434 90.1386 106.39 90.0658 106.346 89.993L105.542 90.5655C105.587 90.6402 105.632 90.7149 105.678 90.7894L106.478 90.2114ZM131.876 111.352C119.355 105.379 111.297 98.1281 106.478 90.2114L105.678 90.7894C110.623 98.9126 118.845 106.275 131.486 112.305L131.876 111.352ZM203.525 115.025C185.007 119.487 161.031 125.258 131.876 111.352L131.486 112.305C160.944 126.356 185.191 120.507 203.726 116.041L203.525 115.025ZM208.546 113.832C206.92 114.207 205.245 114.611 203.525 115.025L203.726 116.041C205.447 115.626 207.118 115.224 208.739 114.85L208.546 113.832ZM232.356 113.608C226.077 110.381 218.098 111.63 208.546 113.832L208.739 114.85C218.342 112.636 225.998 111.495 231.942 114.549L232.356 113.608ZM245.929 140.013C243.176 124.54 238.654 116.844 232.356 113.608L231.942 114.549C237.815 117.567 242.251 124.833 244.988 140.217L245.929 140.013ZM245.905 139.488L245.368 139.605L245.549 140.625L246.086 140.508L245.905 139.488ZM232.178 114.011C238.294 117.154 242.78 124.666 245.525 140.1L246.466 139.896C243.704 124.372 239.133 116.431 232.593 113.07L232.178 114.011ZM208.629 114.269C218.202 112.061 226.043 110.859 232.178 114.011L232.593 113.07C226.123 109.745 217.958 111.055 208.436 113.251L208.629 114.269ZM203.615 115.459C205.335 115.045 207.006 114.643 208.629 114.269L208.436 113.251C206.808 113.626 205.133 114.03 203.414 114.444L203.615 115.459ZM131.709 111.76C160.998 125.731 185.083 119.924 203.615 115.459L203.414 114.444C184.899 118.904 161.085 124.633 132.099 110.807L131.709 111.76ZM106.135 90.4592C111.008 98.4644 119.136 105.763 131.709 111.76L132.099 110.807C119.646 104.867 111.683 97.6799 106.935 89.8811L106.135 90.4592ZM105.842 89.9699C105.938 90.1333 106.036 90.2964 106.135 90.4592L106.935 89.8811C106.838 89.7224 106.743 89.5633 106.649 89.4041L105.842 89.9699ZM109.321 82.8626C108.164 84.9658 106.988 87.1628 105.827 89.4371L106.664 89.9368C107.818 87.6746 108.989 85.4876 110.142 83.392L109.321 82.8626ZM129.698 96.4063C121.245 92.3744 114.827 87.76 110.066 82.7524L109.397 83.5023C114.255 88.6118 120.774 93.289 129.308 97.3594L129.698 96.4063ZM201.346 100.08C182.829 104.542 158.853 110.313 129.698 96.4063L129.308 97.3594C158.766 111.411 183.012 105.562 201.548 101.096L201.346 100.08ZM206.368 98.8868C204.741 99.2619 203.067 99.6654 201.346 100.08L201.548 101.096C203.269 100.681 204.939 100.278 206.56 99.9045L206.368 98.8868ZM230.178 98.6622C223.899 95.436 215.919 96.6844 206.368 98.8868L206.56 99.9045C216.164 97.6901 223.82 96.5493 229.763 99.6033L230.178 98.6622ZM243.75 125.067C240.997 109.594 236.475 101.898 230.178 98.6622L229.763 99.6033C235.637 102.621 240.073 109.888 242.81 125.271L243.75 125.067ZM243.726 124.543L243.189 124.659L243.371 125.68L243.908 125.563L243.726 124.543ZM230 99.0657C236.116 102.208 240.601 109.72 243.347 125.155L244.287 124.951C241.526 109.427 236.955 101.485 230.414 98.1246L230 99.0657ZM206.45 99.3231C216.024 97.1156 223.865 95.9132 230 99.0657L230.414 98.1246C223.944 94.7999 215.779 96.1098 206.258 98.3054L206.45 99.3231ZM201.437 100.514C203.157 100.1 204.827 99.6974 206.45 99.3231L206.258 98.3054C204.629 98.6808 202.955 99.0843 201.236 99.4983L201.437 100.514ZM129.531 96.8149C158.82 110.786 182.904 104.978 201.437 100.514L201.236 99.4983C182.72 103.958 158.907 109.688 129.921 95.8618L129.531 96.8149ZM109.686 82.9757C114.499 88.0656 120.989 92.7404 129.531 96.8149L129.921 95.8618C121.46 91.8261 115.072 87.2146 110.357 82.2278L109.686 82.9757ZM111.002 79.8474C110.543 80.6606 110.079 81.4906 109.612 82.3361L110.432 82.8674C110.898 82.0248 111.36 81.1974 111.818 80.3864L111.002 79.8474ZM110.693 80.254L111.159 80.5619L111.661 79.6719L111.194 79.364L110.693 80.254ZM110.032 82.4396C110.476 81.638 110.916 80.8506 111.352 80.0785L110.536 79.5395C110.099 80.3137 109.657 81.1035 109.212 81.9079L110.032 82.4396ZM108.885 82.1069C109.016 82.2527 109.149 82.3982 109.282 82.5433L109.961 81.8043C109.83 81.6621 109.7 81.5196 109.572 81.3769L108.885 82.1069ZM115.232 69.4152C113.138 73.1291 110.926 77.1923 108.806 81.499L109.65 81.9847C111.758 77.7028 113.959 73.6587 116.048 69.9541L115.232 69.4152ZM114.923 69.8218L115.389 70.1297L115.891 69.2397L115.425 68.9318L114.923 69.8218ZM109.252 81.537C111.343 77.2994 113.52 73.3026 115.582 69.6463L114.766 69.1073C112.699 72.7729 110.512 76.7883 108.408 81.0503L109.252 81.537ZM107.105 80.0086C107.546 80.5613 108.005 81.1098 108.482 81.6539L109.178 80.9334C108.711 80.4009 108.262 79.8643 107.83 79.324L107.105 80.0086ZM117.867 57.6011C114.247 64.0222 110.273 71.4895 107.03 79.4587L107.905 79.8739C111.123 71.9682 115.071 64.5472 118.683 58.1401L117.867 57.6011ZM117.558 58.0077L118.025 58.3156L118.526 57.4256L118.06 57.1177L117.558 58.0077ZM107.512 79.3752C110.728 71.521 114.646 64.1668 118.217 57.8322L117.401 57.2932C113.822 63.6416 109.879 71.0413 106.637 78.9578L107.512 79.3752ZM104.741 76.754C105.351 77.6807 106.005 78.5973 106.707 79.5031L107.442 78.8299C106.756 77.9447 106.117 77.0495 105.522 76.1455L104.741 76.754ZM118.993 44.6417C113.924 53.6323 108.157 64.68 104.676 76.2918L105.587 76.6077C109.031 65.1186 114.748 54.1576 119.809 45.1807L118.993 44.6417ZM118.684 45.0483L119.15 45.3562L119.652 44.4662L119.186 44.1583L118.684 45.0483ZM105.195 76.004C108.676 64.5863 114.346 53.7346 119.343 44.8728L118.527 44.3338C113.523 53.2094 107.804 64.1458 104.286 75.683L105.195 76.004ZM103.956 75.5138C104.084 75.7231 104.213 75.9319 104.345 76.1403L105.136 75.5467C105.007 75.3435 104.881 75.1398 104.756 74.9357L103.956 75.5138ZM102.251 72.423C102.768 73.4639 103.336 74.4946 103.956 75.5138L104.756 74.9357C104.151 73.942 103.598 72.9376 103.094 71.9238L102.251 72.423ZM118.801 30.8052C112.351 42.2463 104.761 57.0326 102.202 72.0823L103.143 72.2645C105.668 57.422 113.17 42.7799 119.617 31.3442L118.801 30.8052ZM118.492 31.2118L118.958 31.5197L119.46 30.6297L118.994 30.3218L118.492 31.2118ZM102.735 71.4254C105.399 56.7082 112.813 42.2775 119.151 31.0363L118.335 30.4973C111.994 41.7449 104.496 56.3146 101.795 71.2314L102.735 71.4254ZM100.056 67.0927C100.556 68.6011 101.148 70.0936 101.838 71.5668L102.692 71.09C102.02 69.6555 101.444 68.2026 100.958 66.7344L100.056 67.0927ZM100.091 64.9859C100.059 65.6272 100.038 66.2682 100.028 66.9086L100.986 66.9186C100.995 66.2916 101.016 65.6637 101.048 65.0352L100.091 64.9859ZM117.516 16.3249C110.018 29.6241 100.968 47.462 100.091 64.9859L101.048 65.0352C101.909 47.8044 110.829 30.1722 118.332 16.8638L117.516 16.3249ZM117.207 16.7315L117.673 17.0394L118.175 16.1494L117.709 15.8415L117.207 16.7315ZM100.501 65.007C101.371 47.6088 110.365 29.8591 117.866 16.5559L117.05 16.017C109.555 29.311 100.43 47.2664 99.5447 64.9577L100.501 65.007ZM100.486 65.3178C100.491 65.2142 100.496 65.1106 100.501 65.007L99.5447 64.9577C99.5395 65.0634 99.5345 65.1691 99.5298 65.2748L100.486 65.3178ZM97.9126 50.0404C97.6523 55.2444 98.1123 60.4251 99.5507 65.4538L100.466 65.1388C99.0656 60.2447 98.6139 55.1895 98.869 50.0898L97.9126 50.0404ZM115.337 1.37947C107.839 14.6787 98.7892 32.5166 97.9126 50.0404L98.869 50.0898C99.7309 32.859 108.65 15.2268 116.153 1.91843L115.337 1.37947ZM115.028 1.78606L115.495 2.09395L115.996 1.20395L115.53 0.896052L115.028 1.78606ZM102.566 97.1274C102.728 96.3119 102.905 95.4973 103.094 94.684L102.166 94.435C101.974 95.2598 101.795 96.0865 101.63 96.9145L102.566 97.1274ZM101.904 96.2736C101.825 96.4471 101.747 96.6209 101.668 96.795L102.528 97.2469C102.606 97.074 102.684 96.9015 102.762 96.7292L101.904 96.2736ZM102.488 94.6516C102.283 95.2052 102.082 95.7608 101.886 96.3184L102.78 96.6844C102.975 96.1325 103.174 95.5823 103.377 95.034L102.488 94.6516ZM102.318 94.4343C102.369 94.6229 102.421 94.8113 102.475 94.9995L103.39 94.6861C103.338 94.5028 103.287 94.3193 103.238 94.1355L102.318 94.4343ZM103.043 94.8195L103.191 94.5449L102.365 94.0249L102.217 94.2995L103.043 94.8195ZM103.723 93.8149C103.689 93.6876 103.656 93.5602 103.623 93.4326L102.7 93.7171C102.733 93.848 102.767 93.9788 102.802 94.1096L103.723 93.8149ZM103.599 91.7671C103.334 92.4303 103.074 93.097 102.82 93.7668L103.705 94.1576C103.957 93.494 104.214 92.8334 104.477 92.176L103.599 91.7671ZM103.574 93.8366C103.866 93.2976 104.158 92.7641 104.449 92.2364L103.628 91.7067C103.336 92.2363 103.043 92.7718 102.749 93.3131L103.574 93.8366ZM104.109 87.9759C104.306 88.3631 104.51 88.7488 104.72 89.1331L105.544 88.5963C105.339 88.2217 105.14 87.8457 104.949 87.4685L104.109 87.9759ZM103.624 92.5472C104.033 90.9867 104.487 89.4331 104.981 87.89L104.077 87.5544C103.577 89.115 103.117 90.6877 102.703 92.2688L103.624 92.5472ZM104.724 88.5954C104.076 89.7453 103.417 90.9294 102.752 92.1445L103.574 92.6715C104.237 91.461 104.894 90.2809 105.54 89.134L104.724 88.5954ZM101.987 92.8478C101.873 93.3008 101.762 93.7545 101.656 94.2088L102.584 94.459C102.689 94.011 102.798 93.5635 102.911 93.1165L101.987 92.8478ZM101.688 91.7596C101.78 92.2122 101.878 92.6639 101.985 93.1145L102.913 92.8498C102.809 92.4106 102.713 91.9705 102.623 91.5293L101.688 91.7596ZM102.525 93.352C102.552 92.797 102.589 92.2415 102.633 91.6856L101.678 91.6032C101.633 92.1698 101.597 92.7364 101.568 93.3027L102.525 93.352ZM102.477 94.5721C102.488 94.1657 102.504 93.759 102.525 93.352L101.568 93.3027C101.547 93.718 101.531 94.1331 101.52 94.548L102.477 94.5721ZM101.706 94.0745L101.585 94.3007L102.412 94.8194L102.533 94.5932L101.706 94.0745ZM105.78 90.4488C105.863 90.2855 105.945 90.1226 106.028 89.9601L105.19 89.462C105.107 89.6254 105.024 89.7892 104.941 89.9534L105.78 90.4488ZM105.15 89.4545C105.075 89.6321 105 89.81 104.925 89.9881L105.796 90.4141C105.871 90.2374 105.945 90.0609 106.02 89.8847L105.15 89.4545ZM106.015 89.4321L105.991 89.3907L105.179 89.9485L105.203 89.99L106.015 89.4321ZM106.332 89.3652C107.466 87.1519 108.613 85.0136 109.741 82.9656L108.92 82.4357C107.788 84.491 106.636 86.639 105.495 88.8639L106.332 89.3652ZM105.453 89.2978L105.505 89.3895L106.322 88.8395L106.27 88.7478L105.453 89.2978ZM108.535 82.0528C107.464 84.2462 106.42 86.5015 105.428 88.8051L106.295 89.2405C107.279 86.9549 108.317 84.7153 109.38 82.5351L108.535 82.0528ZM109.669 82.3301C109.545 82.1961 109.422 82.062 109.3 81.9275L108.615 82.6604C108.74 82.7976 108.866 82.9346 108.992 83.0713L109.669 82.3301ZM106.863 80.6146C107.296 81.1504 107.745 81.6819 108.211 82.2092L108.904 81.4857C108.448 80.9694 108.008 80.4492 107.585 79.9253L106.863 80.6146ZM105.226 87.1366C105.965 84.8884 106.785 82.6641 107.663 80.4749L106.785 80.065C105.899 82.2733 105.071 84.5196 104.324 86.7926L105.226 87.1366ZM105.936 88.1448C105.679 87.671 105.433 87.1951 105.198 86.717L104.352 87.2121C104.593 87.703 104.846 88.1916 105.11 88.6778L105.936 88.1448ZM108.135 81.6058C107.089 83.7447 106.065 85.9444 105.09 88.1922L105.956 88.6304C106.923 86.3998 107.94 84.2153 108.98 82.0892L108.135 81.6058ZM103.212 91.9566C103.64 90.3572 104.115 88.7659 104.63 87.1865L103.727 86.8452C103.207 88.4421 102.726 90.0525 102.292 91.6726L103.212 91.9566ZM101.879 89.7153C101.995 90.4572 102.131 91.1968 102.285 91.9337L103.219 91.6955C103.068 90.9776 102.936 90.2567 102.823 89.5334L101.879 89.7153ZM102.645 84.5216C102.326 86.1987 102.066 87.8811 101.875 89.5643L102.826 89.6844C103.013 88.0314 103.268 86.3771 103.583 84.7258L102.645 84.5216ZM104.603 86.7713C104.225 85.9897 103.875 85.2026 103.553 84.4106L102.676 84.8368C103.007 85.6501 103.366 86.4581 103.754 87.2604L104.603 86.7713ZM104.882 86.4244C105.61 84.2483 106.412 82.0965 107.266 79.9791L106.389 79.5669C105.528 81.7026 104.718 83.8753 103.982 86.0748L104.882 86.4244ZM102.871 83.8199C103.215 84.7156 103.592 85.6051 104.005 86.4877L104.859 86.0115C104.457 85.1521 104.09 84.2861 103.756 83.4142L102.871 83.8199ZM104.467 77.0012C103.84 79.1537 103.294 81.3256 102.846 83.5073L103.781 83.7269C104.222 81.5777 104.761 79.4352 105.38 77.3087L104.467 77.0012ZM107.193 79.4339C106.523 78.5808 105.897 77.718 105.311 76.8464L104.536 77.4636C105.136 78.3565 105.778 79.2397 106.463 80.1122L107.193 79.4339ZM103.499 75.844C103.705 76.1825 103.917 76.5196 104.135 76.8555L104.919 76.2528C104.707 75.9251 104.5 75.5961 104.299 75.266L103.499 75.844ZM102.103 73.3654C102.535 74.1985 103.001 75.0249 103.499 75.844L104.299 75.266C103.813 74.467 103.359 73.6612 102.938 72.8494L102.103 73.3654ZM102.354 79.122C102.467 77.1483 102.684 75.1689 102.992 73.1908L102.048 73.024C101.735 75.0353 101.513 77.0514 101.398 79.0647L102.354 79.122ZM103.404 82.4611C102.993 81.3007 102.638 80.1302 102.338 78.9511L101.414 79.2355C101.723 80.4463 102.087 81.6486 102.51 82.8408L103.404 82.4611ZM104.071 76.3979C103.47 78.4277 102.938 80.476 102.491 82.5349L103.423 82.767C103.863 80.7376 104.388 78.7163 104.983 76.7104L104.071 76.3979ZM101.347 81.0583C101.629 82.0034 101.946 82.943 102.299 83.8763L103.185 83.4752C102.842 82.5664 102.533 81.6514 102.258 80.7309L101.347 81.0583ZM102.547 87.4583C102.309 85.2905 102.227 83.1029 102.281 80.9049L101.324 80.8844C101.269 83.1288 101.352 85.3668 101.595 87.5881L102.547 87.4583ZM102.274 83.5673C102.013 84.8569 101.786 86.1502 101.598 87.4454L102.544 87.601C102.729 86.3275 102.953 85.0546 103.21 83.7842L102.274 83.5673ZM101.935 77.3366C102.08 75.6799 102.294 74.0212 102.571 72.3645L101.629 72.1856C101.348 73.8692 101.129 75.5572 100.981 77.2453L101.935 77.3366ZM100.029 68.5961C100.079 71.5592 100.384 74.5049 100.991 77.4094L101.925 77.1724C101.333 74.3428 101.036 71.4681 100.987 68.5699L100.029 68.5961ZM102.523 72.0279C101.933 70.8258 101.411 69.6106 100.952 68.3844L100.064 68.7816C100.535 70.0408 101.071 71.2885 101.677 72.5223L102.523 72.0279ZM97.7582 96.0182C90.263 109.312 81.138 127.268 80.253 144.959L81.2095 145.008C82.0798 127.61 91.0737 109.86 98.5741 96.5572L97.7582 96.0182ZM98.8831 96.1506L98.417 95.8427L97.9152 96.7327L98.3814 97.0406L98.8831 96.1506ZM81.7559 145.036C82.6178 127.806 91.5369 110.173 99.0402 96.8651L98.2243 96.3261C90.7262 109.625 81.676 127.463 80.7994 144.987L81.7559 145.036ZM87.6432 169.882C82.8996 162.09 81.3264 153.623 81.7559 145.036L80.7994 144.987C80.3608 153.757 81.9686 162.453 86.8431 170.46L87.6432 169.882ZM112.808 190.808C100.354 184.868 92.3909 177.681 87.6432 169.882L86.8431 170.46C91.7166 178.466 99.8443 185.764 112.418 191.762L112.808 190.808ZM184.122 194.445C165.607 198.905 141.794 204.635 112.808 190.808L112.418 191.762C141.707 205.732 165.791 199.925 184.324 195.461L184.122 194.445ZM184.127 194.444L184.125 194.444L184.321 195.461L184.322 195.461L184.127 194.444ZM189.144 193.252C187.517 193.627 185.842 194.031 184.124 194.445L184.325 195.46C186.044 195.046 187.714 194.644 189.337 194.27L189.144 193.252ZM213.301 193.071C206.831 189.747 198.666 191.056 189.144 193.252L189.337 194.27C198.911 192.062 206.752 190.86 212.887 194.012L213.301 193.071ZM227.174 219.897C224.413 204.374 219.842 196.432 213.301 193.071L212.887 194.012C219.003 197.155 223.488 204.667 226.234 220.101L227.174 219.897ZM226.257 220.626L226.795 220.51L226.613 219.489L226.076 219.606L226.257 220.626ZM212.65 194.55C218.524 197.568 222.96 204.834 225.696 220.218L226.637 220.014C223.884 204.541 219.362 196.845 213.064 193.609L212.65 194.55ZM189.447 194.851C199.051 192.637 206.706 191.496 212.65 194.55L213.064 193.609C206.786 190.383 198.806 191.631 189.255 193.833L189.447 194.851ZM184.435 196.042C186.156 195.628 187.826 195.225 189.447 194.851L189.255 193.833C187.628 194.208 185.953 194.612 184.233 195.027L184.435 196.042ZM112.195 192.306C141.653 206.357 165.899 200.509 184.435 196.042L184.233 195.027C165.715 199.489 141.74 205.26 112.585 191.353L112.195 192.306ZM86.3861 170.791C91.3313 178.914 99.553 186.276 112.195 192.306L112.585 191.353C100.063 185.38 92.0057 178.129 87.1861 170.213L86.3861 170.791ZM80.253 144.959C79.8091 153.834 81.4367 162.661 86.3861 170.791L87.1861 170.213C82.3677 162.298 80.7747 153.699 81.2095 145.008L80.253 144.959ZM73.216 151.378C74.0863 133.98 83.0803 116.23 90.5806 102.927L89.7647 102.388C82.2695 115.682 73.1445 133.637 72.2596 151.329L73.216 151.378ZM79.1927 176.582C74.3742 168.667 72.7812 160.069 73.216 151.378L72.2596 151.329C71.8156 160.203 73.4432 169.03 78.3926 177.16L79.1927 176.582ZM104.591 197.723C92.0695 191.75 84.0122 184.499 79.1927 176.582L78.3926 177.16C83.3378 185.283 91.5596 192.646 104.201 198.676L104.591 197.723ZM176.24 201.396C157.722 205.858 133.746 211.629 104.591 197.723L104.201 198.676C133.659 212.727 157.906 206.878 176.441 202.412L176.24 201.396ZM181.261 200.203C179.635 200.578 177.96 200.982 176.24 201.396L176.441 202.412C178.162 201.997 179.832 201.595 181.454 201.221L181.261 200.203ZM205.071 199.979C198.792 196.752 190.812 198.001 181.261 200.203L181.454 201.221C191.057 199.006 198.713 197.866 204.657 200.92L205.071 199.979ZM218.643 226.384C215.891 210.911 211.369 203.215 205.071 199.979L204.657 200.92C210.53 203.938 214.966 211.204 217.703 226.588L218.643 226.384ZM218.62 225.859L218.082 225.976L218.264 226.996L218.801 226.879L218.62 225.859ZM204.893 200.382C211.009 203.525 215.494 211.036 218.24 226.471L219.181 226.267C216.419 210.743 211.848 202.802 205.308 199.441L204.893 200.382ZM181.344 200.639C190.917 198.432 198.758 197.23 204.893 200.382L205.308 199.441C198.838 196.116 190.673 197.426 181.151 199.622L181.344 200.639ZM176.331 201.83C178.051 201.416 179.721 201.014 181.344 200.639L181.151 199.622C179.523 199.997 177.849 200.4 176.13 200.814L176.331 201.83ZM176.327 201.831L176.329 201.831L176.133 200.814L176.132 200.814L176.327 201.831ZM104.424 198.131C133.713 212.102 157.798 206.294 176.33 201.83L176.129 200.815C157.614 205.274 133.8 211.004 104.814 197.178L104.424 198.131ZM78.8497 176.83C83.7231 184.835 91.8509 192.134 104.424 198.131L104.814 197.178C92.3608 191.238 84.3974 184.051 79.6497 176.252L78.8497 176.83ZM72.806 151.357C72.3673 160.127 73.9751 168.823 78.8497 176.83L79.6497 176.252C74.9061 168.46 73.3329 159.992 73.7624 151.406L72.806 151.357ZM90.2308 102.696C82.7327 115.995 73.6826 133.833 72.806 151.357L73.7624 151.406C74.6243 134.175 83.5434 116.543 91.0467 103.235L90.2308 102.696ZM89.9218 103.102L90.3879 103.41L90.8897 102.52L90.4236 102.212L89.9218 103.102ZM81.1159 107.91C73.6207 121.204 64.4957 139.159 63.6108 156.85L64.5672 156.9C65.4375 139.501 74.4315 121.752 81.9318 108.449L81.1159 107.91ZM82.2409 108.042L81.7748 107.734L81.273 108.624L81.7391 108.932L82.2409 108.042ZM65.1136 156.928C65.9755 139.697 74.8946 122.065 82.3979 108.756L81.5821 108.217C74.0839 121.517 65.0338 139.355 64.1572 156.878L65.1136 156.928ZM71.0009 181.774C66.2573 173.982 64.6841 165.514 65.1136 156.928L64.1572 156.878C63.7185 165.648 65.3263 174.345 70.2009 182.352L71.0009 181.774ZM96.1654 202.7C83.712 196.76 75.7487 189.572 71.0009 181.774L70.2009 182.352C75.0743 190.357 83.2021 197.656 95.7753 203.653L96.1654 202.7ZM167.48 206.336C148.965 210.796 125.151 216.526 96.1654 202.7L95.7753 203.653C125.065 217.624 149.149 211.816 167.681 207.352L167.48 206.336ZM172.502 205.143C170.874 205.519 169.199 205.922 167.48 206.336L167.681 207.352C169.401 206.938 171.072 206.535 172.695 206.161L172.502 205.143ZM196.659 204.963C190.189 201.638 182.024 202.948 172.502 205.143L172.695 206.161C182.268 203.954 190.109 202.751 196.245 205.904L196.659 204.963ZM210.532 231.789C207.77 216.265 203.199 208.323 196.659 204.963L196.245 205.904C202.36 209.046 206.846 216.558 209.591 231.993L210.532 231.789ZM209.615 232.517L210.152 232.401L209.971 231.381L209.434 231.497L209.615 232.517ZM196.008 206.441C201.881 209.459 206.317 216.726 209.054 232.109L209.995 231.905C207.242 216.432 202.72 208.736 196.422 205.5L196.008 206.441ZM172.805 206.743C182.408 204.528 190.064 203.387 196.008 206.441L196.422 205.5C190.143 202.274 182.164 203.522 172.612 205.725L172.805 206.743ZM167.792 207.934C169.513 207.519 171.184 207.116 172.805 206.743L172.612 205.725C170.986 206.1 169.311 206.503 167.591 206.918L167.792 207.934ZM95.5524 204.197C125.01 218.249 149.257 212.4 167.792 207.934L167.591 206.918C149.073 211.38 125.097 217.151 95.9425 203.244L95.5524 204.197ZM69.7438 182.682C74.689 190.805 82.9108 198.167 95.5524 204.197L95.9425 203.244C83.4207 197.271 75.3634 190.021 70.5439 182.104L69.7438 182.682ZM63.6108 156.85C63.1668 165.725 64.7944 174.552 69.7438 182.682L70.5439 182.104C65.7254 174.189 64.1324 165.591 64.5672 156.9L63.6108 156.85ZM55.5294 161.89C56.3997 144.491 65.3936 126.742 72.894 113.438L72.0781 112.9C64.5828 126.194 55.4579 144.149 54.5729 161.84L55.5294 161.89ZM61.506 187.094C56.6876 179.179 55.0946 170.581 55.5294 161.89L54.5729 161.84C54.129 170.715 55.7566 179.542 60.706 187.672L61.506 187.094ZM86.9047 208.234C74.3828 202.261 66.3255 195.011 61.506 187.094L60.706 187.672C65.6512 195.795 73.8729 203.157 86.5145 209.187L86.9047 208.234ZM158.553 211.908C140.035 216.37 116.06 222.141 86.9047 208.234L86.5145 209.187C115.973 223.239 140.219 217.39 158.754 212.924L158.553 211.908ZM158.535 211.912L158.535 211.913L158.772 212.919L158.773 212.919L158.535 211.912ZM158.557 211.907L158.553 211.908L158.755 212.923L158.759 212.922L158.557 211.907ZM158.559 211.906L158.557 211.907L158.76 212.922L158.763 212.922L158.559 211.906ZM163.574 210.715C161.95 211.089 160.278 211.492 158.56 211.906L158.762 212.922C160.48 212.508 162.148 212.106 163.767 211.732L163.574 210.715ZM187.384 210.49C181.106 207.264 173.126 208.512 163.574 210.715L163.767 211.732C173.371 209.518 181.026 208.377 186.97 211.431L187.384 210.49ZM200.957 236.895C198.204 221.422 193.682 213.726 187.384 210.49L186.97 211.431C192.843 214.449 197.28 221.716 200.016 237.099L200.957 236.895ZM200.933 236.371L200.396 236.487L200.577 237.507L201.115 237.391L200.933 236.371ZM187.207 210.894C193.323 214.036 197.808 221.548 200.554 236.983L201.494 236.779C198.732 221.255 194.161 213.313 187.621 209.953L187.207 210.894ZM163.657 211.151C173.231 208.944 181.072 207.741 187.207 210.894L187.621 209.953C181.151 206.628 172.986 207.938 163.464 210.133L163.657 211.151ZM158.644 212.342C160.363 211.928 162.034 211.525 163.657 211.151L163.464 210.133C161.836 210.509 160.161 210.912 158.442 211.326L158.644 212.342ZM158.711 212.32L158.712 212.32L158.374 211.348L158.374 211.349L158.711 212.32ZM86.7374 208.643C116.027 222.614 140.111 216.806 158.643 212.342L158.442 211.326C139.927 215.786 116.113 221.516 87.1276 207.69L86.7374 208.643ZM61.163 187.342C66.0365 195.347 74.1642 202.645 86.7374 208.643L87.1276 207.69C74.6742 201.75 66.7108 194.562 61.9631 186.764L61.163 187.342ZM55.1193 161.868C54.6806 170.638 56.2885 179.335 61.163 187.342L61.9631 186.764C57.2195 178.972 55.6462 170.504 56.0758 161.918L55.1193 161.868ZM72.5442 113.207C65.046 126.507 55.9959 144.345 55.1193 161.868L56.0758 161.918C56.9377 144.687 65.8568 127.055 73.3601 113.746L72.5442 113.207ZM72.2351 113.614L72.7012 113.922L73.203 113.032L72.7369 112.724L72.2351 113.614ZM62.8515 117.629C55.3562 130.923 46.2313 148.878 45.3463 166.569L46.3027 166.619C47.173 149.221 56.167 131.471 63.6673 118.168L62.8515 117.629ZM63.9764 117.761L63.5103 117.453L63.0085 118.343L63.4746 118.651L63.9764 117.761ZM46.8491 166.647C47.7111 149.416 56.6301 131.784 64.1335 118.476L63.3176 117.937C55.8194 131.236 46.7693 149.074 45.8927 166.598L46.8491 166.647ZM52.7365 191.493C47.9929 183.701 46.4196 175.233 46.8491 166.647L45.8927 166.598C45.454 175.367 47.0619 184.064 51.9364 192.071L52.7365 191.493ZM77.901 212.419C65.4476 206.479 57.4842 199.292 52.7365 191.493L51.9364 192.071C56.8098 200.076 64.9376 207.375 77.5108 213.372L77.901 212.419ZM149.216 216.056C130.7 220.515 106.887 226.245 77.901 212.419L77.5108 213.372C106.8 227.343 130.884 221.535 149.417 217.071L149.216 216.056ZM149.148 216.078L149.148 216.078L149.485 217.049L149.485 217.049L149.148 216.078ZM154.238 214.863C152.609 215.238 150.935 215.641 149.216 216.055L149.417 217.071C151.137 216.657 152.807 216.255 154.43 215.88L154.238 214.863ZM178.394 214.682C171.924 211.357 163.76 212.667 154.238 214.863L154.43 215.88C164.004 213.673 171.845 212.47 177.98 215.623L178.394 214.682ZM192.267 241.508C189.506 225.984 184.935 218.042 178.394 214.682L177.98 215.623C184.096 218.765 188.581 226.277 191.327 241.712L192.267 241.508ZM191.351 242.237L191.888 242.12L191.706 241.1L191.169 241.216L191.351 242.237ZM177.743 216.161C183.617 219.179 188.053 226.445 190.79 241.829L191.73 241.625C188.978 226.152 184.456 218.456 178.158 215.219L177.743 216.161ZM154.541 216.462C164.144 214.247 171.8 213.107 177.743 216.161L178.158 215.219C171.879 211.993 163.899 213.242 154.348 215.444L154.541 216.462ZM149.528 217.653C151.249 217.238 152.919 216.836 154.541 216.462L154.348 215.444C152.721 215.819 151.047 216.223 149.327 216.637L149.528 217.653ZM77.2879 213.917C106.746 227.968 130.993 222.119 149.528 217.653L149.327 216.637C130.809 221.099 106.833 226.87 77.6781 212.963L77.2879 213.917ZM51.4793 192.401C56.4246 200.524 64.6463 207.887 77.2879 213.917L77.6781 212.963C65.1562 206.991 57.0989 199.74 52.2794 191.823L51.4793 192.401ZM45.3463 166.569C44.9024 175.444 46.53 184.271 51.4793 192.401L52.2794 191.823C47.461 183.908 45.868 175.31 46.3027 166.619L45.3463 166.569ZM37.0484 171.304C37.9187 153.906 46.9127 136.156 54.4131 122.853L53.5972 122.314C46.1019 135.608 36.977 153.563 36.092 171.254L37.0484 171.304ZM43.0251 196.508C38.2067 188.593 36.6137 179.995 37.0484 171.304L36.092 171.254C35.6481 180.129 37.2757 188.956 42.2251 197.086L43.0251 196.508ZM68.4238 217.648C55.9019 211.676 47.8446 204.425 43.0251 196.508L42.2251 197.086C47.1703 205.209 55.392 212.572 68.0336 218.602L68.4238 217.648ZM140.072 221.322C121.554 225.784 97.5786 231.555 68.4238 217.648L68.0336 218.602C97.4917 232.653 121.738 226.804 140.274 222.338L140.072 221.322ZM140.055 221.327L140.054 221.327L140.292 222.333L140.292 222.333L140.055 221.327ZM140.077 221.321L140.073 221.322L140.274 222.338L140.278 222.337L140.077 221.321ZM140.079 221.321L140.076 221.321L140.279 222.336L140.282 222.336L140.079 221.321ZM145.094 220.129C143.469 220.503 141.797 220.906 140.08 221.32L140.281 222.336C141.999 221.922 143.667 221.52 145.286 221.147L145.094 220.129ZM168.903 219.904C162.625 216.678 154.645 217.927 145.094 220.129L145.286 221.147C154.89 218.932 162.545 217.791 168.489 220.846L168.903 219.904ZM182.476 246.309C179.723 230.837 175.201 223.14 168.903 219.904L168.489 220.846C174.363 223.864 178.799 231.13 181.535 246.514L182.476 246.309ZM182.452 245.785L181.915 245.901L182.096 246.922L182.634 246.805L182.452 245.785ZM168.726 220.308C174.842 223.45 179.327 230.962 182.073 246.397L183.013 246.193C180.252 230.669 175.681 222.727 169.14 219.367L168.726 220.308ZM145.176 220.565C154.75 218.358 162.591 217.155 168.726 220.308L169.14 219.367C162.67 216.042 154.505 217.352 144.983 219.548L145.176 220.565ZM140.163 221.756C141.882 221.342 143.553 220.94 145.176 220.565L144.983 219.548C143.355 219.923 141.68 220.326 139.961 220.74L140.163 221.756ZM140.231 221.734L140.231 221.734L139.893 220.763L139.893 220.763L140.231 221.734ZM68.2565 218.057C97.5458 232.028 121.63 226.22 140.163 221.756L139.961 220.741C121.446 225.2 97.6326 230.93 68.6467 217.104L68.2565 218.057ZM42.6821 196.756C47.5555 204.761 55.6833 212.06 68.2565 218.057L68.6467 217.104C56.1933 211.164 48.2299 203.977 43.4822 196.178L42.6821 196.756ZM36.6384 171.283C36.1997 180.052 37.8076 188.749 42.6821 196.756L43.4822 196.178C38.7386 188.386 37.1653 179.918 37.5948 171.332L36.6384 171.283ZM54.0633 122.622C46.5651 135.921 37.515 153.759 36.6384 171.283L37.5948 171.332C38.4568 154.101 47.3759 136.469 54.8792 123.161L54.0633 122.622ZM53.7542 123.028L54.2203 123.336L54.7221 122.446L54.256 122.138L53.7542 123.028ZM44.4239 127.118C36.9287 140.412 27.8037 158.368 26.9188 176.059L27.8752 176.108C28.7455 158.71 37.7394 140.96 45.2398 127.657L44.4239 127.118ZM45.5489 127.251L45.0827 126.943L44.581 127.833L45.0471 128.14L45.5489 127.251ZM28.4216 176.136C29.2835 158.906 38.2026 141.273 45.7059 127.965L44.89 127.426C37.3919 140.725 28.3418 158.563 27.4652 176.087L28.4216 176.136ZM34.3089 200.982C29.5653 193.19 27.9921 184.723 28.4216 176.136L27.4652 176.087C27.0265 184.857 28.6343 193.553 33.5089 201.56L34.3089 200.982ZM59.4734 221.908C47.02 215.968 39.0566 208.781 34.3089 200.982L33.5089 201.56C38.3823 209.566 46.5101 216.864 59.0833 222.861L59.4734 221.908ZM130.788 225.545C112.273 230.005 88.4593 235.734 59.4734 221.908L59.0833 222.861C88.3725 236.832 112.457 231.025 130.989 226.561L130.788 225.545ZM130.72 225.567L130.72 225.567L131.057 226.538L131.057 226.538L130.72 225.567ZM135.81 224.352C134.182 224.727 132.507 225.131 130.788 225.545L130.989 226.561C132.709 226.146 134.38 225.744 136.003 225.37L135.81 224.352ZM159.967 224.171C153.497 220.846 145.332 222.156 135.81 224.352L136.003 225.37C145.576 223.162 153.417 221.96 159.552 225.112L159.967 224.171ZM173.84 250.997C171.078 235.474 166.507 227.532 159.967 224.171L159.552 225.112C165.668 228.255 170.154 235.767 172.899 251.201L173.84 250.997ZM172.923 251.726L173.46 251.609L173.279 250.589L172.742 250.706L172.923 251.726ZM159.316 225.65C165.189 228.668 169.625 235.934 172.362 251.318L173.303 251.114C170.55 235.641 166.028 227.945 159.73 224.709L159.316 225.65ZM136.113 225.951C145.716 223.737 153.372 222.596 159.316 225.65L159.73 224.709C153.451 221.483 145.472 222.731 135.92 224.933L136.113 225.951ZM131.1 227.142C132.821 226.727 134.492 226.325 136.113 225.951L135.92 224.933C134.294 225.308 132.619 225.712 130.899 226.126L131.1 227.142ZM58.8604 223.406C88.3185 237.457 112.565 231.608 131.1 227.142L130.899 226.126C112.381 230.589 88.4053 236.36 59.2505 222.453L58.8604 223.406ZM33.0518 201.891C37.997 210.014 46.2187 217.376 58.8604 223.406L59.2505 222.453C46.7287 216.48 38.6714 209.229 33.8518 201.313L33.0518 201.891ZM26.9188 176.059C26.4748 184.933 28.1024 193.761 33.0518 201.891L33.8518 201.313C29.0334 193.398 27.4404 184.799 27.8752 176.108L26.9188 176.059ZM18.8753 181.152C19.7456 163.753 28.7396 146.004 36.2399 132.701L35.424 132.162C27.9288 145.456 18.8038 163.411 17.9189 181.102L18.8753 181.152ZM24.852 206.356C20.0336 198.441 18.4405 189.843 18.8753 181.152L17.9189 181.102C17.4749 189.977 19.1025 198.804 24.0519 206.934L24.852 206.356ZM50.2506 227.496C37.7288 221.524 29.6715 214.273 24.852 206.356L24.0519 206.934C28.9971 215.057 37.2189 222.42 49.8605 228.45L50.2506 227.496ZM121.899 231.17C103.381 235.632 79.4055 241.403 50.2506 227.496L49.8605 228.45C79.3186 242.501 103.565 236.652 122.1 232.186L121.899 231.17ZM121.881 231.175L121.881 231.175L122.118 232.181L122.119 232.181L121.881 231.175ZM121.903 231.169L121.899 231.17L122.101 232.186L122.105 232.185L121.903 231.169ZM121.905 231.168L121.902 231.169L122.106 232.184L122.109 232.184L121.905 231.168ZM126.92 229.977C125.296 230.351 123.624 230.754 121.906 231.168L122.108 232.184C123.826 231.77 125.494 231.368 127.113 230.995L126.92 229.977ZM150.73 229.752C144.451 226.526 136.472 227.775 126.92 229.977L127.113 230.995C136.717 228.78 144.372 227.639 150.316 230.693L150.73 229.752ZM164.303 256.157C161.55 240.685 157.028 232.988 150.73 229.752L150.316 230.693C156.189 233.712 160.626 240.978 163.362 256.362L164.303 256.157ZM164.279 255.633L163.742 255.749L163.923 256.77L164.461 256.653L164.279 255.633ZM150.553 230.156C156.669 233.298 161.154 240.81 163.9 256.245L164.84 256.041C162.078 240.517 157.507 232.575 150.967 229.215L150.553 230.156ZM127.003 230.413C136.577 228.206 144.418 227.003 150.553 230.156L150.967 229.215C144.497 225.89 136.332 227.2 126.81 229.396L127.003 230.413ZM121.99 231.604C123.709 231.19 125.38 230.788 127.003 230.413L126.81 229.396C125.182 229.771 123.507 230.174 121.788 230.588L121.99 231.604ZM122.057 231.582L122.058 231.582L121.72 230.611L121.72 230.611L122.057 231.582ZM50.0834 227.905C79.3726 241.876 103.457 236.068 121.989 231.604L121.788 230.588C103.273 235.048 79.4594 240.778 50.4735 226.952L50.0834 227.905ZM24.509 206.604C29.3824 214.609 37.5102 221.908 50.0834 227.905L50.4735 226.952C38.0201 221.012 30.0568 213.825 25.309 206.026L24.509 206.604ZM18.4653 181.131C18.0266 189.9 19.6344 198.597 24.509 206.604L25.309 206.026C20.5654 198.234 18.9922 189.766 19.4217 181.18L18.4653 181.131ZM35.8902 132.47C28.392 145.769 19.3419 163.607 18.4653 181.131L19.4217 181.18C20.2836 163.949 29.2027 146.317 36.706 133.009L35.8902 132.47ZM35.5811 132.876L36.0472 133.184L36.549 132.294L36.0829 131.986L35.5811 132.876ZM26.6594 137.525C19.1642 150.819 10.0392 168.774 9.15425 186.466L10.1107 186.515C10.981 169.117 19.9749 151.367 27.4753 138.064L26.6594 137.525ZM27.7844 137.657L27.3182 137.349L26.8165 138.239L27.2826 138.547L27.7844 137.657ZM10.6571 186.543C11.519 169.312 20.4381 151.68 27.9414 138.372L27.1255 137.833C19.6274 151.132 10.5772 168.97 9.70065 186.494L10.6571 186.543ZM16.5444 211.389C11.8008 203.597 10.2276 195.129 10.6571 186.543L9.70065 186.494C9.26196 195.264 10.8698 203.96 15.7443 211.967L16.5444 211.389ZM41.7089 232.315C29.2555 226.375 21.2921 219.188 16.5444 211.389L15.7443 211.967C20.6178 219.972 28.7455 227.271 41.3187 233.268L41.7089 232.315ZM113.024 235.952C94.5083 240.411 70.6948 246.141 41.7089 232.315L41.3187 233.268C70.608 247.239 94.6922 241.431 113.225 236.967L113.024 235.952ZM112.956 235.974L112.956 235.974L113.293 236.945L113.293 236.945L112.956 235.974ZM118.046 234.759C116.417 235.134 114.743 235.538 113.024 235.952L113.225 236.967C114.945 236.553 116.615 236.151 118.238 235.776L118.046 234.759ZM142.202 234.578C135.732 231.253 127.568 232.563 118.046 234.759L118.238 235.776C127.812 233.569 135.653 232.367 141.788 235.519L142.202 234.578ZM156.075 261.404C153.314 245.88 148.743 237.939 142.202 234.578L141.788 235.519C147.904 238.662 152.389 246.173 155.135 261.608L156.075 261.404ZM155.159 262.133L155.696 262.016L155.514 260.996L154.977 261.113L155.159 262.133ZM141.551 236.057C147.425 239.075 151.861 246.341 154.598 261.725L155.538 261.521C152.786 246.048 148.264 238.352 141.966 235.116L141.551 236.057ZM118.348 236.358C127.952 234.143 135.608 233.003 141.551 236.057L141.966 235.116C135.687 231.889 127.707 233.138 118.156 235.34L118.348 236.358ZM113.34 237.548C115.06 237.133 116.728 236.731 118.348 236.358L118.156 235.34C116.531 235.715 114.857 236.118 113.139 236.532L113.34 237.548ZM113.336 237.549L113.34 237.548L113.139 236.532L113.135 236.533L113.336 237.549ZM113.354 237.544L113.354 237.544L113.117 236.538L113.116 236.538L113.354 237.544ZM41.0958 233.813C70.554 247.864 94.8005 242.015 113.336 237.549L113.134 236.533C94.6167 240.995 70.6408 246.766 41.486 232.86L41.0958 233.813ZM15.2873 212.297C20.2325 220.421 28.4542 227.783 41.0958 233.813L41.486 232.86C28.9642 226.887 20.9069 219.636 16.0873 211.719L15.2873 212.297ZM9.15425 186.466C8.71031 195.34 10.3379 204.167 15.2873 212.297L16.0873 211.719C11.2689 203.804 9.67591 195.206 10.1107 186.515L9.15425 186.466ZM1.62472 192.252C2.49503 174.854 11.489 157.104 18.9893 143.801L18.1735 143.262C10.6782 156.556 1.55327 174.511 0.668304 192.203L1.62472 192.252ZM7.60138 217.456C2.78298 209.542 1.18997 200.943 1.62472 192.252L0.668304 192.203C0.224372 201.077 1.85197 209.904 6.80134 218.034L7.60138 217.456ZM33.0001 238.597C20.4782 232.624 12.4209 225.373 7.60138 217.456L6.80134 218.034C11.7466 226.158 19.9683 233.52 32.6099 239.55L33.0001 238.597ZM104.649 242.27C86.1308 246.732 62.1549 252.503 33.0001 238.597L32.6099 239.55C62.068 253.601 86.3145 247.752 104.85 243.286L104.649 242.27ZM109.67 241.077C108.043 241.452 106.369 241.856 104.649 242.27L104.85 243.286C106.571 242.871 108.241 242.469 109.863 242.095L109.67 241.077ZM133.48 240.853C127.201 237.626 119.221 238.875 109.67 241.077L109.863 242.095C119.466 239.881 127.122 238.74 133.065 241.794L133.48 240.853ZM147.052 267.258C144.3 251.785 139.778 244.089 133.48 240.853L133.065 241.794C138.939 244.812 143.375 252.078 146.112 267.462L147.052 267.258ZM147.028 266.733L146.491 266.85L146.673 267.87L147.21 267.753L147.028 266.733ZM133.302 241.256C139.418 244.399 143.903 251.911 146.649 267.345L147.589 267.141C144.828 251.617 140.257 243.676 133.716 240.315L133.302 241.256ZM109.752 241.514C119.326 239.306 127.167 238.104 133.302 241.256L133.716 240.315C127.246 236.99 119.082 238.3 109.56 240.496L109.752 241.514ZM104.739 242.705C106.459 242.29 108.129 241.888 109.752 241.514L109.56 240.496C107.931 240.871 106.257 241.275 104.538 241.689L104.739 242.705ZM32.8328 239.005C62.1221 252.976 86.2063 247.169 104.739 242.705L104.538 241.689C86.0224 246.149 62.2089 251.878 33.223 238.052L32.8328 239.005ZM7.25841 217.704C12.1318 225.709 20.2596 233.008 32.8328 239.005L33.223 238.052C20.7696 232.112 12.8062 224.925 8.05845 217.126L7.25841 217.704ZM1.21471 192.231C0.776018 201.001 2.38385 209.697 7.25841 217.704L8.05845 217.126C3.31485 209.334 1.74161 200.867 2.17113 192.28L1.21471 192.231ZM18.6396 143.57C11.1414 156.869 2.0913 174.707 1.21471 192.231L2.17113 192.28C3.03306 175.049 11.9521 157.417 19.4555 144.109L18.6396 143.57ZM18.3305 143.977L18.7966 144.284L19.2984 143.394L18.8323 143.087L18.3305 143.977Z" fill="url(#paint1_radial_311_78)" fill-opacity="0.05"/>
<defs>
<radialGradient id="paint0_radial_311_78" cx="0" cy="0" r="1" gradientUnits="userSpaceOnUse" gradientTransform="translate(107.506 171.002) rotate(35.5301) scale(117.516 129.358)">
<stop stop-color="white"/>
<stop offset="1" stop-color="#1E1E1E" stop-opacity="0"/>
<stop offset="1" stop-color="#0E0E35" stop-opacity="0"/>
<stop offset="1" stop-color="white" stop-opacity="0"/>
</radialGradient>
<radialGradient id="paint1_radial_311_78" cx="0" cy="0" r="1" gradientUnits="userSpaceOnUse" gradientTransform="translate(107.506 171.002) rotate(35.5301) scale(117.516 129.358)">
<stop stop-color="white"/>
<stop offset="1" stop-color="#1E1E1E" stop-opacity="0"/>
<stop offset="1" stop-color="#0E0E35" stop-opacity="0"/>
<stop offset="1" stop-color="white" stop-opacity="0"/>
</radialGradient>
</defs>
</svg>
