<svg width="14" height="18" viewBox="0 0 14 18" fill="none" xmlns="http://www.w3.org/2000/svg">
<path d="M7 5.89125C5.96625 5.89125 5.125 6.7325 5.125 7.76625C5.125 8.8 5.96625 9.64125 7 9.64125C8.03375 9.64125 8.875 8.8 8.875 7.76625C8.875 6.7325 8.03375 5.89125 7 5.89125ZM7 8.39125C6.65562 8.39125 6.375 8.11063 6.375 7.76625C6.375 7.42188 6.65562 7.14125 7 7.14125C7.34437 7.14125 7.625 7.42188 7.625 7.76625C7.625 8.11063 7.34437 8.39125 7 8.39125Z" fill="#F0F1F5"/>
<path d="M11.0875 9.92813C11.2744 9.20938 11.375 8.47375 11.375 7.735C11.375 4.73813 9.86563 1.98313 7.3375 0.365002C7.13438 0.235002 6.86562 0.235002 6.6625 0.365002C4.13438 1.98313 2.625 4.73875 2.625 7.735C2.625 8.47438 2.72563 9.21 2.9125 9.92813C1.5375 11.1156 0.75 12.8056 0.75 14.6413C0.75 15.605 0.975625 16.5656 1.40313 17.4206C1.50875 17.6325 1.72563 17.7663 1.9625 17.7663C2.19938 17.7663 2.41688 17.6313 2.5225 17.4188C3.27063 15.9106 4.7075 14.8869 6.36438 14.68V14.6788C6.36812 14.6781 6.37125 14.68 6.375 14.6794V15.5788C6.375 15.7513 6.515 15.8913 6.6875 15.8913H7.3125C7.485 15.8913 7.625 15.7513 7.625 15.5788V14.6794L7.62562 14.6788C9.28687 14.8831 10.7275 15.9075 11.4775 17.4188C11.5831 17.6313 11.7994 17.7656 12.0369 17.7663C12.2738 17.7663 12.4906 17.6325 12.5969 17.4206C13.0244 16.5656 13.25 15.605 13.25 14.6413C13.25 12.8056 12.4625 11.1156 11.0875 9.92813ZM2.12125 15.7338C2.04125 15.3763 2 15.0094 2 14.6413C2 13.3475 2.49125 12.145 3.35813 11.2263C3.75688 12.1463 4.30812 12.9875 4.9975 13.7175C3.86562 14.0981 2.86813 14.7969 2.12125 15.7338ZM7.625 13.3044V11.8288C7.625 11.6563 7.485 11.5163 7.3125 11.5163H6.6875C6.515 11.5163 6.375 11.6563 6.375 11.8288V13.3044C5.3625 12.4025 4.615 11.2588 4.215 9.96125C3.98937 9.23625 3.875 8.48688 3.875 7.735C3.875 5.3025 5.03562 3.05563 7 1.64563C8.96437 3.055 10.125 5.3025 10.125 7.735C10.125 8.48688 10.0106 9.23625 9.78438 9.96313C9.385 11.2594 8.6375 12.4031 7.625 13.3044ZM11.8787 15.7338C11.1319 14.7969 10.1337 14.0981 9.00187 13.7175C9.69187 12.9875 10.2431 12.1463 10.6419 11.2263C11.5087 12.1456 12 13.3475 12 14.6413C12 15.0094 11.9587 15.3763 11.8787 15.7338Z" fill="#F0F1F5"/>
</svg>
