<svg width="18" height="20" viewBox="0 0 18 20" fill="none" xmlns="http://www.w3.org/2000/svg">
<path d="M14.1114 14.0842V14.0842C14.1114 14.1252 14.113 14.1658 14.1162 14.2059L9.94327 16.4049C9.83089 16.3087 9.7042 16.2294 9.56691 16.1706V11.3815C9.67227 11.3364 9.77145 11.2792 9.86271 11.2115L14.1284 13.859C14.1174 13.9324 14.1114 14.0075 14.1114 14.0842ZM17.05 14.0842C17.05 13.4633 16.6773 12.9295 16.1476 12.7027V7.29726C16.6773 7.07051 17.05 6.53667 17.05 5.91583C17.05 5.0908 16.3918 4.41792 15.5807 4.41792C15.2217 4.41792 14.8927 4.55014 14.6374 4.76864L10.4644 2.56958C10.4676 2.52945 10.4693 2.48887 10.4693 2.44791C10.4693 1.62288 9.81116 0.95 8.99998 0.95C8.18884 0.95 7.53068 1.62288 7.53068 2.44791C7.53068 2.48887 7.53233 2.52945 7.53553 2.56958L3.36259 4.76864C3.10733 4.55014 2.7783 4.41792 2.4193 4.41792C1.60816 4.41792 0.95 5.0908 0.95 5.91583C0.95 6.53671 1.32266 7.07055 1.85238 7.2973V12.7028C1.32266 12.9295 0.95 13.4634 0.95 14.0842C0.95 14.9093 1.60816 15.5822 2.4193 15.5822C2.7783 15.5822 3.10733 15.4499 3.36259 15.2314L7.53553 17.4305C7.53233 17.4706 7.53068 17.5112 7.53068 17.5521C7.53068 18.3771 8.18885 19.05 8.99998 19.05C9.81112 19.05 10.4693 18.3771 10.4693 17.5521C10.4693 17.5111 10.4676 17.4705 10.4644 17.4304L14.6374 15.2314C14.8926 15.4499 15.2217 15.5821 15.5807 15.5821C16.3918 15.5821 17.05 14.9092 17.05 14.0842ZM3.28202 12.8727C3.19077 12.805 3.09162 12.7478 2.98622 12.7027V7.29726C3.09159 7.25217 3.19076 7.19503 3.28202 7.12733L7.54768 9.77476C7.53668 9.84815 7.53068 9.9233 7.53068 9.99996C7.53068 10.0766 7.53668 10.1518 7.54768 10.2252L3.28202 12.8727ZM8.43306 11.3815V16.1706C8.29577 16.2294 8.16908 16.3087 8.0567 16.4049L3.88376 14.2059C3.88695 14.1658 3.8886 14.1252 3.8886 14.0842C3.8886 14.0075 3.88261 13.9324 3.87161 13.859L8.13727 11.2116C8.22851 11.2792 8.32766 11.3364 8.43306 11.3815ZM8.43306 3.82942V8.61853C8.32769 8.66362 8.22852 8.72076 8.13726 8.78846L3.87161 6.14103C3.88261 6.06765 3.8886 5.99249 3.8886 5.91583C3.8886 5.87486 3.88695 5.83428 3.88376 5.79416L8.0567 3.59513C8.16908 3.6913 8.29574 3.77064 8.43306 3.82942ZM9.56691 3.82938C9.70419 3.77061 9.83088 3.69127 9.94326 3.59509L14.1162 5.79416C14.113 5.83428 14.1114 5.87486 14.1114 5.91583C14.1114 5.99249 14.1174 6.06765 14.1284 6.14103L9.8627 8.78846C9.77146 8.72079 9.6723 8.66362 9.56691 8.61853V3.82938ZM15.0138 12.7027C14.9084 12.7478 14.8092 12.805 14.718 12.8727L10.4523 10.2252C10.4633 10.1519 10.4693 10.0767 10.4693 10C10.4693 9.92337 10.4633 9.84822 10.4523 9.77483L14.718 7.1274C14.8092 7.1951 14.9084 7.25224 15.0138 7.29733V12.7027Z" fill="#DFDFDF" stroke="#DFDFDF" stroke-width="0.1"/>
</svg>
