<svg width="18" height="18" viewBox="0 0 18 18" fill="none" xmlns="http://www.w3.org/2000/svg">
<path d="M13.1414 15.2539C12.9381 13.6077 11.5345 12.3333 9.83333 12.3333H8.16667C6.46548 12.3333 5.06194 13.6077 4.85864 15.2539M13.1414 15.2539C15.1655 13.9108 16.5 11.6112 16.5 9C16.5 4.85786 13.1421 1.5 9 1.5C4.85786 1.5 1.5 4.85786 1.5 9C1.5 11.6112 2.83447 13.9108 4.85864 15.2539M13.1414 15.2539C11.9547 16.0413 10.5309 16.5 9 16.5C7.46911 16.5 6.04534 16.0413 4.85864 15.2539M11.5 7.33333C11.5 8.71405 10.3807 9.83333 9 9.83333C7.61929 9.83333 6.5 8.71405 6.5 7.33333C6.5 5.95262 7.61929 4.83333 9 4.83333C10.3807 4.83333 11.5 5.95262 11.5 7.33333Z" stroke="#DFDFDF" stroke-width="1.5" stroke-linecap="round" stroke-linejoin="round"/>
</svg>
