<svg width="16" height="16" viewBox="0 0 16 16" fill="none" xmlns="http://www.w3.org/2000/svg">
<path d="M14.4234 2.83321C14.3371 1.72022 13.4046 0.840805 12.2699 0.840805H2.16069C0.969281 0.840805 0 1.81009 0 3.00149V12.9985C0 14.1899 0.969281 15.1592 2.16069 15.1592H13.8393C15.0308 15.1592 16 14.1899 16 12.9985V4.91302C16 3.92403 15.3318 3.08871 14.4234 2.83321ZM2.16069 1.85018H12.2699C12.8192 1.85018 13.2796 2.23692 13.3938 2.75237H2.16069C1.73767 2.75237 1.34297 2.87504 1.00937 3.086V3.00149C1.00937 2.36666 1.52586 1.85018 2.16069 1.85018ZM13.8393 14.1498H2.16069C1.52586 14.1498 1.00937 13.6333 1.00937 12.9985V4.91302C1.00937 4.27819 1.52586 3.76171 2.16069 3.76171H13.8393C14.4742 3.76171 14.9907 4.27819 14.9907 4.91302V6.67431H11.7725C10.4972 6.67431 9.45968 7.71185 9.45968 8.98713C9.45968 10.2624 10.4972 11.3 11.7725 11.3H14.9906V12.9985C14.9906 13.6333 14.4741 14.1498 13.8393 14.1498ZM14.9906 10.2906H11.7725C11.0538 10.2906 10.4691 9.70587 10.4691 8.98713C10.4691 8.2684 11.0538 7.68369 11.7725 7.68369H14.9906V10.2906Z" fill="white"/>
</svg>
